<svg id="Layer_1" data-name="Layer 1" xmlns="http://www.w3.org/2000/svg" viewBox="0 0 174.69 48.15"><defs><style>.cls-1,.cls-2{fill:#fff;}.cls-2{stroke:#fff;stroke-width:0.25px;}</style></defs><title>Artboard 2</title><path class="cls-1" d="M29.78,32.17V11A148.67,148.67,0,0,0,0,11V32.17c1.35,14.32,14.76,16,14.89,16,2.4-.43,13.64-2.69,14.89-16ZM29,32.05C27.85,44.81,17.17,47,14.9,47.4,14.78,47.42,2,45.8.76,32.05V11.77a139.19,139.19,0,0,1,28.28,0V32.05Zm-4.33,7.51a5.66,5.66,0,0,0,.91-2.2,2.72,2.72,0,0,1-1.09.84c-.29.9-.15,1.84.18,1.36Zm.46-2.05c.34-.28.53-.77,1-.92-.33-.3-.65.3-.82.1a2.75,2.75,0,0,0,.53-1.45c0-.33.39-.63.48-.81a3.51,3.51,0,0,0-1.52,1,5.62,5.62,0,0,1-3.33,2.87c-.14,0,.5-.47.68-1a3.66,3.66,0,0,0,.2-2,2,2,0,0,0-.61,1.18c-.4,1.11-.62,1.21-1.64,1.89-.13.1-.91,1.3-1.91,1.35.1,0,0-.27.38-.5,1.13-.73.7-2.33,2.17-2.6-.73-.26-1.23.46-1.37.39.59-.83.07-1.52.16-2.19a.8.8,0,0,0-.42.54c-.11,1.2-.66,1.41-.72,1.92.12.85-.57,1.52-1.07,2.12A1.2,1.2,0,0,1,18,38c.34-.23,0-.91,0-.91-.14.75-.56,1-.82,1s.79-1,.68-2c-.06-.44-.18-.25-.25-.74-.89,1-.24,1.59-1.15,2.73a5.49,5.49,0,0,0-.64,1.5c0-1.4.05-1,.68-2.14.51-.93,0-1.81-.1-2.38a2.91,2.91,0,0,0-1.06,2,3.52,3.52,0,0,1,0-1.39A4,4,0,0,0,15,33.51c-1.58,2.47-.25,5.35-.35,5.32-.69-1.07-1.19-1.11-1.34-1.94-.08-.44-.89-2.89-2.38-2.93.75.65.57.74.62,1.79-.48,2.66,3.24,2.94,3,4.31a5.82,5.82,0,0,0-2.46-1.79c-.52-.41-1.1-.6-1.13-1.24a2.29,2.29,0,0,0,0-1c0-.43-.48-.17-.79-1.08a1.59,1.59,0,0,0-.37,1.69,1.77,1.77,0,0,1,0,.76,4,4,0,0,1-.67-.84,6.72,6.72,0,0,1-.72-1.88c-.11-.24-.27-.57-.37-.57H8a3.87,3.87,0,0,0,.37,2.53.84.84,0,0,1-.22.26,1.85,1.85,0,0,1-1.24-1.14.81.81,0,0,0-.18,1c-1.16-.6,0-2.91-1.64-2.84.41.45.15,1,.11,1.55,0,.87,1.1,1.54,1.1,1.54-1.23-.42-1.48.16-1.47.16A17,17,0,0,0,9.5,38.27c.37,0,.89.47.81.47a2,2,0,0,0-2.14.43c.61,0,1,1,2,.44a3.54,3.54,0,0,1,3.95.88c-.09.16-2-1.19-3.48-.29-.8.47-2.09,0-3.09-.71a4.6,4.6,0,0,0,2.7,2.21c.71,0,1.6-.92,2.62-.87,1.63.08,1.85,1.54,1.67,1.42,0,0-1.28-2.12-2.93.15a3.34,3.34,0,0,1,2.7.16c.13.06-.22.44-.46.71s-.84,1.2-1.59.2c-.11-.15-.46-1.08-2.78-.88a9.51,9.51,0,0,1,2.32,1.91C13.06,45.7,14.9,43,15,43.33a2.25,2.25,0,0,0,.47,1.22c.4.81-.52.67-1,.46,0,0,1,1.5,1.76.67s-1.16-1.62-.51-2.35c.37-.42,1.66.92,2.24.92,1.58.18,1.5-1.32,2.33-1.28a1.25,1.25,0,0,0-1.79-.15c-.52.61-1.14.2-1.56-.13a.87.87,0,0,0-1-.26c-.16,0,.33-.58,1-.46a5.54,5.54,0,0,0,3.26-.44c.59-.32.91-.88,1.57-1.5-.21,0-1.42.71-1.8.9a1.94,1.94,0,0,1-2-.17c-.22,0-.16-.17.19-.28,1.19-.27,2-1.32,3.16-1.73,1.25-.57,2.85-.18,3.91-1.24ZM22.8,35.94a5.14,5.14,0,0,1-.12.72s.28.15.41.26a3.52,3.52,0,0,0,.54-.5s-.81-.69-.81-.67a1.37,1.37,0,0,1,0,.19Zm.12,1.14s-.3-.22-.31-.18-.12.27-.2.44.15,0,.51-.26Zm3.46-3c-.07-2.74-1.75-5.78-1.29-5.21,1.14,1.41,1.51,4.47,2.29,7.11,0,0,.51.26.4-3.09a5.7,5.7,0,0,0-.63-2.21c-.67-1.24-2-3.34-2-3.35.33-.27,1.12,1.54,1.81,2.25a3.94,3.94,0,0,0,1.77.85c-1-1.92-3.4-3.73-3.15-4,1.77,1.66,2.33,1.74,2.4,1.65l-1.59-1.54c-.45-.61-1.05-1.07-1-1.05.71.15-.38-.6-1.21-.82-.15,0-.39-.06-.4-.13s.19-.08.37-.13a.3.3,0,0,0,.23-.29,1.45,1.45,0,0,1-.92-.13,3.52,3.52,0,0,0-2-.38,1.64,1.64,0,0,0-.61.32c-.13-.06-.49-.28-1,.32a1.33,1.33,0,0,0-.35.57c0,.41,0,0,.11.41,0,.16-.15.46-.89.71a.31.31,0,0,0-.21.37.73.73,0,0,1,.71-.06c.68.32.81-.19,1.23-.54,0,0-.11.45,0,.47.53.11.35.51.29.57-.67.59-.39.81-.63,1.18a1.1,1.1,0,0,1-1.08.45c-.71,0,.93-1.09-.64-1.53.25.41.35.74-.2,1.05-.34.2-.17,1.22-1,.75,0,0-.07.76-.18.79,1.21,1.05.53,1.62.59,3.13.38,1,0,1.41-.13,1.46A2.41,2.41,0,0,0,18,35.59c.29.39,0,1,.27,1.39.28-1,.57-.57.65-1.93a1.55,1.55,0,0,1,.83-.66c0,.82.3,1.57.23,1.91a3.29,3.29,0,0,1,.91,0,.51.51,0,0,1,.3.42,5.37,5.37,0,0,0-.59.35,3,3,0,0,0-.9,1.37A16.77,16.77,0,0,0,21.24,37a5.37,5.37,0,0,0,.24-.69s-.75-.47-1-.88c-.65-1.26,1,.76,1.05.58a2.47,2.47,0,0,1,.4-.85,2.58,2.58,0,0,1-.76-.9c-.91-1.61,1.05.68,1.05.68.52-.3.52.1.59.52,0,0,.88.69.92.73a2.57,2.57,0,0,0,.53-.76,25.18,25.18,0,0,1-1.86-1.91c-2.2-3.78,1.78,1.67,2,1.52a3.55,3.55,0,0,0,.13-1.25,5.22,5.22,0,0,1-1.23-1.32c-1.85-3.06,1.22.91,1.22.88,0-.65-.58-3.49-.21-2.64a10.4,10.4,0,0,1,.68,4.1,3,3,0,0,1,1.38-.76Zm1.21-18.18q0,.16,0,.24t0-.24a1.1,1.1,0,0,0-1.15-1,2.46,2.46,0,0,1-1.89,0v1.73c.44.13,1.67-.57,2.17-.78s.84-.06.87.12Zm-3.08,2.5v1.73a4.1,4.1,0,0,0,2-.7,1,1,0,0,1,1,.07h0s-.15-1.13-1.11-1c-1.76.25-2-.11-2-.11Zm-6.6,2.75c.92,0,4.54,1,6.28.87V12.92a11.25,11.25,0,0,1-4.78-.46c-1.82-.67-4.31.5-4.31.5v8.92a4.69,4.69,0,0,1,2.81-.74Zm-2-3h.44c0,.19,0,1.54,0,1.68a.17.17,0,0,0,.26.13c.06,0,.11,0,0,.08a3.37,3.37,0,0,0-.37.42c-.15-.1-.31-.23-.3-.36s-.05-1.78-.06-2Zm.48-2A1.89,1.89,0,0,1,17.49,16c.1,0,.21,0,.21-.05s.09-.05.09,0v.76a.05.05,0,0,1-.1,0,.36.36,0,0,0-.08-.25.78.78,0,0,0-1.22.05c-.11.14-.15.39,0,.43a2.66,2.66,0,0,0,.74,0,4.65,4.65,0,0,0,.56-.12s.1-.06.1,0v.4c0,.08-.06,0-.1,0a4,4,0,0,0-.55-.07,3.8,3.8,0,0,0-.76-.06c-.13,0,0,.23.08.38a.73.73,0,0,0,1.16.09c.09-.13.09-.15.09-.24a0,0,0,1,1,.09,0V18c0,.05-.1.06-.1,0s-.07-.1-.2-.06a1.62,1.62,0,0,1-1.09,0c-.29-.17-.54-.22-.55-.86a1.08,1.08,0,0,1,.59-.83Zm1.91-2.77a.49.49,0,0,0-.31.36c0,.16-.56,1.7-.63,1.8a9,9,0,0,0-.83-1.86c-.14-.22-.28-.18-.42-.18s-.08-.13,0-.12,1,.09,1.23.13c.08,0,.08.09,0,.13s-.19.08-.19.14a4.74,4.74,0,0,0,.39.89,3.38,3.38,0,0,0,.3-1.07c-.06-.16-.09-.18-.21-.2s-.11-.08,0-.1a3.77,3.77,0,0,1,.66,0c.12,0,.14.08,0,.12Zm.9,0-.16.14H19l-.13-.13v-.26L19,13l.21.21v.22Zm.36,1.78-.28.36h-.26a.87.87,0,0,1-.24-.33v-.88l-.33-.18c-.06.08-.18.08-.13,0l.45-.4h.09l.29.29V15a.57.57,0,0,0,.42.24Zm1.59-1-.75.08a6.2,6.2,0,0,0,.06.93c0,.07.09.17.17.11s.15,0,.06.11-.19.34-.26.38-.26-.16-.32-.29A5,5,0,0,1,20,14.3s-.32-.13-.16-.19a1.64,1.64,0,0,0,.62-.63c0-.11.13-.06.08,0a.56.56,0,0,0,0,.48,4.6,4.6,0,0,0,.67,0s0,.15,0,.15Zm-.78,2.9a.63.63,0,0,0,.39.64.93.93,0,0,0,.49,0c.06,0,0,0,.09-.07s.11,0,.07,0a7.37,7.37,0,0,1-.55.5.46.46,0,0,1-.45-.15,1,1,0,0,1-.33-.93c.06-.36.66-.68.8-.75s.33.34.44.44a.47.47,0,0,1-.34.12c-.15,0-.25-.12-.35-.23a.59.59,0,0,0-.26.37Zm2.4-1.43-.36.39a.41.41,0,0,1-.2-.29,1.45,1.45,0,0,0-.6.32,1.07,1.07,0,0,1-.29-.57,1,1,0,0,1,.25-.57l0,0-.16-.11a.18.18,0,0,1,0-.21,1.12,1.12,0,0,1,.52-.41.8.8,0,0,1,.59.26,9,9,0,0,0,0,.92,1.77,1.77,0,0,0,.25.25Zm.75,1.8-.31-.05c-.1,0-.06-.14,0-.14a1.1,1.1,0,0,1,.27,0c.06,0,.09.16,0,.15Zm0,.28a1.54,1.54,0,0,1-.3,0c-.11,0-.07-.14,0-.14a.76.76,0,0,1,.27,0c.06,0,.09.15,0,.14ZM21.66,19.4c.12-.07.4-.33.5-.4a2.43,2.43,0,0,1,.36.35l.36-.25a2.75,2.75,0,0,1,.37.3c.07-.07.17,0,.08.08a4.47,4.47,0,0,1-.35.29,2.62,2.62,0,0,1-.34-.31.66.66,0,0,1-.15.09v1.17a1.68,1.68,0,0,1-.39,0c0-.15,0-1,0-1.1s-.27-.22-.44-.22Zm-.06-1.82a1.15,1.15,0,0,1,.83-1,.89.89,0,0,1,.57.81,1.53,1.53,0,0,1-.23.69,2.8,2.8,0,0,0-.46.4.83.83,0,0,1-.71-.85Zm-1.88,1.55c.15-.16.3-.27.39-.36a1,1,0,0,1,.29.31c0,.21,0,.65,0,.8s.59.25.62,0a3.28,3.28,0,0,0,0-.63c0-.1-.24-.14-.36-.13.16-.17.29-.29.39-.38a1.93,1.93,0,0,1,.37.39,5.13,5.13,0,0,0,0,.87c0,.14,0,.15.13.22-.11.11-.19.15-.26.23a.42.42,0,0,1-.29-.35,3.36,3.36,0,0,1-.68.3c-.14-.15-.25-.19-.26-.37a3.89,3.89,0,0,0,0-.78.29.29,0,0,0-.28-.15Zm-.33-1.33a1.53,1.53,0,0,1-.45-.43c-.19.25-.24.46-.59.55a1.26,1.26,0,0,0,.38-.91.58.58,0,0,0-.35-.54c-.13.06-.25.15-.32.18s-.09-.08,0-.11a4.59,4.59,0,0,0,.6-.42.49.49,0,0,1,.38.29,5.17,5.17,0,0,0,.4-.36,1.08,1.08,0,0,0,.53.37c-.22.37-.71.15-.78.06a.31.31,0,0,0,0,.37,1.22,1.22,0,0,0,.71.49,4.83,4.83,0,0,1-.45.46Zm-.56,1.13s-.32-.12-.17-.19a1.39,1.39,0,0,0,.54-.5c0-.1.13,0,.08.05a1,1,0,0,0-.06.43s.21.05.29.06,0,.15,0,.15h-.3a5.71,5.71,0,0,0,0,.92.25.25,0,0,0,.3,0c.07-.06.14,0,.06.07s-.2.28-.32.32a.35.35,0,0,1-.38-.15,3.25,3.25,0,0,1-.05-1.2Zm-.77,1.35c-.12-.1-.23-.12-.27-.27a2.48,2.48,0,0,0-.62.44A.69.69,0,0,1,17,20a.92.92,0,0,1,.29-.54l0,0s-.1-.31,0-.38.35-.49.57-.51.27.18.4.32a6.65,6.65,0,0,0,0,.79c.14.15.2.19.28.13s.12,0,.06.06-.33.38-.4.47Zm-.28-.83a3.33,3.33,0,0,0,0-.35c0-.1-.21-.26-.27-.26s-.12,0-.2.14a.59.59,0,0,0,0,.35.51.51,0,0,0,.48.12Zm-.38.09c-.17.32,0,.39.07.47a2,2,0,0,0,.3-.18s0-.16,0-.28c-.19,0-.25.06-.38,0ZM22,17.62a1.49,1.49,0,0,0,.51.52,1.06,1.06,0,0,0,.19-.75.81.81,0,0,0-.51-.51.56.56,0,0,0-.19.74Zm0-1.88a.75.75,0,0,1,.29-.08.85.85,0,0,1,0-.16v-.3A2.66,2.66,0,0,1,21.7,15l.08,0a.59.59,0,0,0,.16.73Zm-.37-1a3.15,3.15,0,0,0,.66.34c0-.15,0-.3,0-.38s-.35-.29-.41-.29-.15.1-.23.22,0,.09,0,.11ZM14.78,23a.85.85,0,0,0-.73.51c-.17.17-.16-.29-.52-.09-.15.2.25.65.15.68-.38.12-.33-.58-.55-.59S12,24.37,12.8,25c0-.39.71-.82.95,0a1,1,0,0,1,1.09.65c1.09.19.77.92.74.92a.91.91,0,0,0-1.34-.38c-.18.11-.49.23-.64.07a.48.48,0,0,0,.53.41c.69-.19.86.45.34.62.11.18.32.17.52,0s.33-.34.44-.45c.18.89-.95,1-1.31,1,.06.19.18.23.41.3A1.47,1.47,0,0,0,13.18,30c.26,0,.68-.57.64-.23a2.54,2.54,0,0,0-.68,2.85c.21-.08.27-.32.35-.51,0,0,.46.17-.23,1,0,.22-.29.87.24,1a1.07,1.07,0,0,0,.22-.69c.16-.06.26.44.2.59-.7.29-.61,2.42.2,3.57a3.71,3.71,0,0,1,0-2.76c.24-.66.79-2.14.81-2.12a7.08,7.08,0,0,1,.7,2.69c.43-.38.52-.79.87-1.07.17.59.24,1,.37,1.51a3,3,0,0,0,0-2.75c.13-.12.38.58.46.54s.15-.37-.07-1a1.36,1.36,0,0,1-.49-1.1c.06,0,.26.65.51.68a10.88,10.88,0,0,0,.14-1.49,2.24,2.24,0,0,0-.7-1.12,1.42,1.42,0,0,1-.38-.93c.28.26.22.45.46.56a2,2,0,0,0-.26-1.43c-.16-.27-.09-.23.11-.07s.14.29.37.42c.49-1.17,0-1.39.08-1.48s.38.55.68.31c-.49-.26-.48-.65-.53-1.07s-.26-.46-.18-.54c.49.37.62,0,.64-.12s-.53.11-.58-.56c0-.27-.43-.38-.43-.38.25,0,1.05-.09.86-.89a.69.69,0,0,1-.83.37.37.37,0,0,0,.26-.43c-.77.43-1.39-.45-2.19-.34Zm1.42,1.05c-.51.1-.89.66-1.47.42-.07,0-.23-.09-.21-.21a1.29,1.29,0,0,0,.38.12.4.4,0,0,1,0-.58c-.35.22-.47.16-.47.05a.88.88,0,0,1,.89-.22,5,5,0,0,0,.92.4v0Zm-.82,0a.62.62,0,0,1-.15.29l.55-.28a2.89,2.89,0,0,0-.55-.29.41.41,0,0,1,.15.28Zm-3.26-2.94a7,7,0,0,1,2.56.73V12.93s-2-1.43-5.35-.15A9.84,9.84,0,0,1,6,12.84V22c2.08.14,4.78-.93,6.13-.84Zm-1-4.81c.26.08.66,0,.78.38s-.11.85-.42.87-.49-.06-.64,0a.12.12,0,0,0-.13.1.07.07,0,1,1-.13,0c0-.1-.05-.53-.05-.65s.11-.14.14,0a.6.6,0,0,0,.16.34.86.86,0,0,0,.78.07.32.32,0,0,0,0-.49c-.16-.11-.79-.25-.9-.43s.14-.57.29-.65a1,1,0,0,1,.57-.09c.09,0,.21,0,.22-.06s.08-.09.09,0c0,.27.05.11,0,.4s0,.14-.1,0-.43-.39-.74-.19-.17.33.08.4Zm.76,1.83a3.19,3.19,0,0,0-.31.33c-.09-.06-.22-.18-.32-.26a.66.66,0,0,0,.32-.29.39.39,0,0,0,.31.22Zm-1.7.69a2.13,2.13,0,0,0,.41-.65c0-.1.09-.06.08.05a3.29,3.29,0,0,0,0,.57s.23,0,.31,0,.05.14,0,.14l-.31,0a1.53,1.53,0,0,0,0,.59c.1.09.17.16.31,0s.13,0,.06.06a1.78,1.78,0,0,0-.28.38c0,.11-.29,0-.37-.09a2.36,2.36,0,0,1-.08-.94s-.24-.12-.12-.21ZM10,17.77c-.09.08-.29,0-.36-.17a2.44,2.44,0,0,1-.07-1s-.06-.09-.14-.1-.12-.06,0-.13a1.63,1.63,0,0,0,.51-.62c0-.09.09,0,0,.1a.79.79,0,0,0,0,.55,2.25,2.25,0,0,0,.44,0s0,.14,0,.14l-.52.06a2.86,2.86,0,0,0,.09.79s.15.13.2.08.14,0,.06.07-.12.18-.23.26ZM8.36,18.88a4.41,4.41,0,0,0,.37-.35,1.68,1.68,0,0,0,.24.38,4.91,4.91,0,0,0,.41-.33.45.45,0,0,1,.25.45c0,.32,0,.81,0,.92s0,0,.11,0,.12,0,.06.08a4.49,4.49,0,0,0-.46.36.73.73,0,0,1-.09-.55,4.41,4.41,0,0,0,0-.72c0-.1-.16-.13-.22-.19l-.18.15c0,.14,0,1.08,0,1.21a2.64,2.64,0,0,1-.32,0c0-.18,0-.91,0-1.06a.63.63,0,0,0-.22-.36Zm-1.42.51c.09-.62.68-.87.86-1a1.58,1.58,0,0,0,.37.62l-.84.69c.1.17.47.3.59.17s.2-.06.1.06a2.82,2.82,0,0,0-.34.51,1.1,1.1,0,0,1-.74-1.06Zm-.16-2.84A1.67,1.67,0,0,1,7.52,16l.27.37a2.62,2.62,0,0,0-.29.28c0-.06-.33-.48-.53-.19a.69.69,0,0,0,.14.91.74.74,0,0,0,.62.14,1.52,1.52,0,0,0-.23.36.73.73,0,0,1-.68-.2.87.87,0,0,1,0-1.15Zm1.61-.82c-.06-.09-.07-.17-.2-.14a1.17,1.17,0,0,1-.93,0,.76.76,0,0,1-.52-.84,1,1,0,0,1,.55-.8,1.36,1.36,0,0,1,.87,0c.09,0,.16,0,.16-.1s.11-.05.11,0,0,.82,0,.88-.12.07-.12,0a2.33,2.33,0,0,0-.06-.39.54.54,0,0,0-1-.07,1.06,1.06,0,0,0-.14.49,1,1,0,0,0,.14.5c.3.43.72.28.94-.06a.69.69,0,0,0,.08-.37c0-.05.12-.06.12,0s0,.57,0,.62a.31.31,0,0,0,.09.17c.07.11,0,.2-.12.06Zm.28.45c.14,0,.26.27.38.4,0,0,0,.88,0,1s.12.1.16.07.12,0,.06.05l-.4.37a.39.39,0,0,1-.14-.33.71.71,0,0,0-.43.29.53.53,0,0,1-.34-.43c0-.19.13-.3.26-.43l-.07-.06a.7.7,0,0,1,0-.42.91.91,0,0,1,.6-.47Zm1.52-2.06c-.08.08-.26.19-.33.25s-.21-.23-.27-.27l-.13.08c0,.11,0,1.11,0,1.22a1.44,1.44,0,0,1-.36,0c0-.15,0-.94,0-1.07s-.15-.17-.34-.22a2.77,2.77,0,0,1,.39-.34c.16.12.25.12.33.21a2.3,2.3,0,0,0,.37-.23c.07.09.21.23.26.3s.17,0,.08.07Zm1.45,1c-.09,0-.27.23-.42.23a.86.86,0,0,1-.9-.92.92.92,0,0,1,.77-.85c.24,0,.29.22.43.34a9.47,9.47,0,0,0-.73.69.63.63,0,0,0,.75.37c.22,0,.3.05.1.14ZM13.38,14c-.05.06-.23.2-.43.37l.09,0c.33.2.45.47.12.73a1.35,1.35,0,0,1-.79.31,1.26,1.26,0,0,1-.64-.24l.48-.45c-.21-.15-.4-.37-.24-.61a1.12,1.12,0,0,1,.81-.47,1,1,0,0,1,.6.33Zm.21,1.68.19.2v.22l-.14.13h-.13l-.12-.13v-.24l.2-.18Zm.37-1c-.46,0-.34-.19-.27-.19.39,0,.34.19.27.19ZM14,15c-.46,0-.34-.19-.26-.18.43,0,.33.19.26.18Zm.21,2.71-.17.19-.22.18c-.12-.12-.21-.16-.23-.26V17l-.2-.12c-.12.11-.21.06-.1,0l.38-.35.09,0,.16.25v.88c.1.09.1.08.29.11Zm-1.71,2.15a.7.7,0,0,1,.24-.5l0,0a.74.74,0,0,1-.05-.45,1.13,1.13,0,0,1,.58-.41c.14,0,.35.29.47.43a8.12,8.12,0,0,0,0,1c0,.07.19.12.24,0s.11,0,.05.06-.26.22-.33.3a1.65,1.65,0,0,1-.35-.28,1.59,1.59,0,0,0-.6.32.49.49,0,0,1-.26-.46Zm-.31-2.51a.76.76,0,0,1,.21-.78c.1-.08.31-.26.44-.34l.3.17c0,.06-.05.19-.19.2s-.37,0-.49.07,0,.47.12.6.4.24.45.12.18-.08.07.06a4.64,4.64,0,0,0-.26.4.73.73,0,0,1-.65-.5Zm.08,2.46-.16.19-.16.16c-.13-.13-.22-.15-.24-.25v-.8L11.41,19c-.12.09-.21.05-.11,0l.38-.35.09,0,.25.36v.76c.1.09,0,.09.2.12Zm.6-.35c-.27.23,0,.43.11.51a1.6,1.6,0,0,1,.31-.1.23.23,0,0,1,0-.11,2.3,2.3,0,0,1,0-.23.46.46,0,0,1-.4-.07Zm.41,0a1.91,1.91,0,0,0,0-.34c0-.1-.3-.29-.35-.29s-.06,0-.14.16a.43.43,0,0,0,0,.28.59.59,0,0,0,.46.19Zm-.53-5,.2-.16a1,1,0,0,0-.46-.26c-.1,0-.3.07-.22.18a.49.49,0,0,0,.32.25Zm-.15.3L12.2,15c.05.11.4.36.59.27s.28-.28.11-.38l-.35-.17Zm-1.8-.23c.09-.07.3-.31.44-.44a.67.67,0,0,1-.27-.28c-.24.19-.29.33-.17.72ZM8.69,17.58v-.44c-.16.09-.22.17-.39.07-.26.22.14.35.23.42a.58.58,0,0,1,.16-.05Zm0-.55c0-.11,0-.21,0-.26a.52.52,0,0,0-.23-.33c-.06,0-.19.11-.26.22a.36.36,0,0,0,0,.34c.16.18.23.18.47,0ZM7.51,18.75c-.5.31-.41.65-.25.86a4.06,4.06,0,0,0,.56-.42,1.31,1.31,0,0,1-.31-.44ZM4.44,20H5.56V18.85H4.44V20Zm0-3.87H5.56V15H4.44v1.11ZM3.11,18.34a1,1,0,1,0,0,1.94,1,1,0,0,0,0-1.94Zm0-3.88a1,1,0,0,0,0,1.94,1,1,0,0,0,0-1.94ZM14.5,25.81a.82.82,0,0,0-.39-.41c-.75-.36-2.2.42-2.19-.72,0,0-.52.39-.28.79.54.92,2-.22,2.86.34ZM7.7,35c-.42.42-.57.43-.55.61a2.32,2.32,0,0,0,.48.66c.25.21.35.39.16-.2A3.94,3.94,0,0,1,7.7,35ZM4.78,27l0,0c0,.87-2.45,2.12-3.5,2.68,1.62.56,3.15-.94,3-.58S2.07,31.3,1.2,32.21c.68.19,1.29-.35,1.78-.77s1.42-1.59,1.29-1c-1.44,1.78-2.57,5.47-1.88,5.71.4-.84,2.06-5.1,2.16-5.08a13.46,13.46,0,0,1-.16,1.85,12.2,12.2,0,0,0,.25,4c.18-.24.35-.24.64-.22,0-.15,0-.11-.16-.35-.46-.61.07-1.44-.15-1.94s-.29-.09-.37-.53a1.37,1.37,0,0,1,.61-.17c.15-1.65.7-2.49.5-1.45a5.27,5.27,0,0,0-.19,1.43l.15,0s2.77-4.49,1.25-1.36a17.22,17.22,0,0,1-1,1.51,1.81,1.81,0,0,1,.44.63s3.68-4.83,1.18-.9c-.16.24-.91,1-1.1,1.28,0,0,.07.91.07.91a6.4,6.4,0,0,0,1.18-1.14c0-.5.09-.43.11-.92.12-.08.27.13.46.3s2.51-4.16,1-1a8.29,8.29,0,0,1-.81,1.16,5,5,0,0,1,.43.86s3.25-4.68,1.28-1.13C10,34.16,9,35.34,9,35.37c.24.59.45,1.16.45,1.16a2.09,2.09,0,0,1,.79-2.11,1.28,1.28,0,0,0,.63,1.1c.12.11.35.58.38.18.08-1.16-.29-1.13-.57-1.62-.07-.12-.06-.38,0-.37C13,33.78,13,36,13.34,36a2.2,2.2,0,0,1,0-1.56A1.28,1.28,0,0,1,13,32.88a2.33,2.33,0,0,1,0-2.6c-.45-.66.11-1.11,0-1.51-.19-1.43-1.46-1-1.75-2.36-.2.24-.57,1.06-.4,1.34s.63.33.65.57c0,.09.05.37,0,.43-.25,0-.41-.18-.66-.28-.49-.2-1.69.62-1.76-.1-.05-.46.15-.13.13-.55S9,27.69,9,27.13c0-.41.49-.54.53-.71.09-.4.83.6,1.26-.46-.25,0-.76-.15-.71-.39.12-.67.14-2.29-1.38-1.94-.54.12-2.06.92-2.26.05-.55,1,.53.8.85.78a.74.74,0,0,1-.69.15c-.85.56-4,2.54-4.87,3,1.21.56,3.07-.61,3.1-.61Zm.88,10.79a4.3,4.3,0,0,1-.88-.39,9.26,9.26,0,0,0,.69,1.89c.2.38.56-.55.19-1.5Z"/><path class="cls-1" d="M5.45.2A1.8,1.8,0,0,0,6,.16.39.39,0,0,0,6.14,0s.09,0,.1,0a4.43,4.43,0,0,0-.11,1.08.09.09,0,0,1-.13,0A1,1,0,0,0,5.79.58,1.31,1.31,0,0,0,4.9.38H4.38c-.22,0-.23,0-.23.29V4a2.08,2.08,0,0,0,.11.91A.59.59,0,0,0,4.61,5l.25,0a.09.09,0,0,1,0,.12c-.33,0-.6,0-1,0s-.74,0-1.05,0a.09.09,0,0,1,0-.12l.33,0a.55.55,0,0,0,.33-.14A2.28,2.28,0,0,0,3.58,4V.67c0-.29,0-.29-.23-.29H2.91c-.46,0-.78,0-.94.18a1.91,1.91,0,0,0-.35.54A.12.12,0,0,1,1.48,1a6.34,6.34,0,0,0,.29-1,.07.07,0,0,1,.1,0A.27.27,0,0,0,2,.15,2.34,2.34,0,0,0,2.54.2Z"/><path class="cls-1" d="M13.56,1.38a2.28,2.28,0,0,0-.1-.9.54.54,0,0,0-.35-.15l-.18,0s0-.1,0-.12c.35,0,.59,0,.89,0s.57,0,.9,0c0,0,0,.07,0,.12l-.15,0a.55.55,0,0,0-.35.16,2.25,2.25,0,0,0-.1.9v.84c0,.22,0,.24.36.24h2.22c.34,0,.36,0,.36-.24V1.38A2.22,2.22,0,0,0,17,.48c-.07-.1-.22-.12-.34-.15l-.15,0s0-.1,0-.12c.3,0,.56,0,.85,0s.59,0,.9,0c0,0,0,.08,0,.12l-.15,0a.6.6,0,0,0-.35.13,2.37,2.37,0,0,0-.1.91V4a2.25,2.25,0,0,0,.1.9.69.69,0,0,0,.35.15l.18,0a.08.08,0,0,1,0,.12c-.3,0-.62,0-.91,0s-.59,0-.86,0a.08.08,0,0,1,0-.12l.15,0c.17,0,.28-.07.35-.17a2.33,2.33,0,0,0,.1-.88v-1c0-.22,0-.24-.36-.24H14.49c-.34,0-.36,0-.36.24V4a2.22,2.22,0,0,0,.11.9.59.59,0,0,0,.34.15l.24,0a.09.09,0,0,1,0,.12c-.34,0-.66,0-1,0s-.5,0-.8,0a.08.08,0,0,1,0-.12l.11,0a.52.52,0,0,0,.35-.15,2.49,2.49,0,0,0,.1-.9Z"/><path class="cls-1" d="M25.87,4a2.19,2.19,0,0,1-.11.9.59.59,0,0,1-.34.14l-.3,0a.08.08,0,0,0,0,.12c.34,0,.68,0,1.05,0h1.66l1,0a4,4,0,0,0,.32-1,.12.12,0,0,0-.14,0c-.32.77-.66.87-1.57.85-.65,0-.8-.08-.88-.17A1.6,1.6,0,0,1,26.44,4v-1c0-.24,0-.26.23-.26h.42a2.13,2.13,0,0,1,.69.08c.09,0,.15.12.2.27l.08.3a.14.14,0,0,0,.14,0c0-.16,0-.44,0-.73s0-.58,0-.73a.12.12,0,0,0-.14,0L28,2.13c-.06.19-.14.26-.21.29a3.37,3.37,0,0,1-.69.05h-.42c-.22,0-.23,0-.23-.26V1a2,2,0,0,1,0-.55c0-.06.07-.09.32-.09h.41A3.28,3.28,0,0,1,28,.44c.41.09.53.38.61.72.05,0,.12,0,.14,0,0-.28-.08-.82-.11-.95-.12,0-.54,0-1,0H25.76l-.47,0a.09.09,0,0,0,0,.12l.14,0a.58.58,0,0,1,.35.17,2.18,2.18,0,0,1,.1.89Z"/><path class="cls-1" d="M43.9,3a2.46,2.46,0,0,1-.49,1.71A2,2,0,0,1,42,5.27a2,2,0,0,1-1.43-.42A2.08,2.08,0,0,1,40,3.16V1.4a2.31,2.31,0,0,0-.11-.92A.54.54,0,0,0,39.5.33l-.17,0a.08.08,0,0,1,0-.12c.35,0,.59,0,.9,0s.59,0,.92,0c0,0,0,.08,0,.12L41,.33a.56.56,0,0,0-.35.15,2.37,2.37,0,0,0-.1.92V3.05c0,1.15.39,2,1.56,2s1.57-.85,1.57-2v-1A5.73,5.73,0,0,0,43.52.5c-.05-.09-.19-.14-.38-.17l-.22,0a.09.09,0,0,1,0-.12c.3,0,.57,0,.86,0s.48,0,.73,0a.09.09,0,0,1,0,.12l-.2,0c-.14,0-.29.09-.32.16a6.75,6.75,0,0,0-.11,1.55Z"/><path class="cls-1" d="M57.27,3.88c0,.22,0,1.15,0,1.32s0,.07-.09.07-.29-.4-.74-.91l-2-2.27c-.56-.64-.71-.82-.84-.94s-.08.11-.08.46v1.7a6.16,6.16,0,0,0,.14,1.55.59.59,0,0,0,.38.17l.22,0a.09.09,0,0,1,0,.12l-.87,0c-.27,0-.48,0-.73,0a.09.09,0,0,1,0-.12l.2,0c.15,0,.29-.09.32-.17a6.66,6.66,0,0,0,.11-1.54V1.73c0-.78,0-1-.2-1.23a1,1,0,0,0-.44-.17l-.16,0a.09.09,0,0,1,0-.12c.26,0,.5,0,.75,0a2.24,2.24,0,0,0,.4,0A8.1,8.1,0,0,0,54.92,1.8l.74.82C56,3,56.8,3.89,57,4.08a1,1,0,0,0,0-.39V2.05A5.73,5.73,0,0,0,56.89.5c0-.09-.19-.14-.37-.17l-.23,0a.09.09,0,0,1,0-.12c.3,0,.58,0,.86,0s.48,0,.74,0c0,0,0,.08,0,.12l-.2,0c-.14,0-.28.09-.31.16a6.76,6.76,0,0,0-.12,1.55Z"/><path class="cls-1" d="M67.38,4a2.43,2.43,0,0,0,.1.93.69.69,0,0,0,.35.15l.19,0a.11.11,0,0,1,0,.12l-.92,0-.91,0a.09.09,0,0,1,0-.12l.19,0a.66.66,0,0,0,.35-.15A2.37,2.37,0,0,0,66.81,4V1.4A2.31,2.31,0,0,0,66.7.48a.54.54,0,0,0-.35-.15l-.18,0a.08.08,0,0,1,0-.12c.36,0,.6,0,.91,0s.59,0,.92,0c0,0,0,.08,0,.12l-.19,0a.56.56,0,0,0-.35.15,2.37,2.37,0,0,0-.1.92Z"/><path class="cls-1" d="M76.91,1.37a6.85,6.85,0,0,0-.35-.79.45.45,0,0,0-.34-.23L76,.3a.08.08,0,0,1,0-.12c.22,0,.47,0,.79,0s.55,0,.83,0a.08.08,0,0,1,0,.12l-.2,0c-.16,0-.24,0-.24.14a7.2,7.2,0,0,0,.39,1.09l.74,1.83c.17.42.3.71.34.8.06-.12.16-.32.33-.73l.42-1c.38-.88.55-1.35.67-1.68a1.39,1.39,0,0,0,.08-.34c0-.06-.08-.09-.24-.12L79.7.3a.08.08,0,0,1,0-.12c.28,0,.52,0,.75,0s.48,0,.7,0a.09.09,0,0,1,0,.12L81,.34a.48.48,0,0,0-.41.31c-.11.19-.49,1-.81,1.71l-.41.93c-.3.69-.63,1.56-.76,2a.13.13,0,0,1-.14,0,8.53,8.53,0,0,0-.35-1Z"/><path class="cls-1" d="M89.64,1.39A2,2,0,0,0,89.53.5a.55.55,0,0,0-.34-.17L89,.3a.08.08,0,0,1,0-.12l.46,0h1.82c.48,0,.9,0,1,0,0,.13.07.67.11,1a.14.14,0,0,1-.13,0c-.08-.34-.2-.63-.62-.72A3.12,3.12,0,0,0,91,.38h-.41c-.26,0-.31,0-.33.09a3.21,3.21,0,0,0,0,.55V2.21c0,.24,0,.26.22.26h.42a3.37,3.37,0,0,0,.69-.05c.08,0,.16-.1.21-.29l.08-.28a.1.1,0,0,1,.13,0c0,.15,0,.45,0,.73s0,.57,0,.73-.1,0-.13,0L91.74,3c0-.15-.1-.24-.2-.27a2.13,2.13,0,0,0-.69-.08h-.42c-.22,0-.22,0-.22.26V4a1.62,1.62,0,0,0,.12.83c.09.09.24.17.89.17.91,0,1.24-.08,1.56-.85a.12.12,0,0,1,.14,0,4,4,0,0,1-.32,1l-1,0H90c-.38,0-.71,0-1.06,0a.08.08,0,0,1,0-.12l.3,0a.56.56,0,0,0,.33-.14,2,2,0,0,0,.12-.9Z"/><path class="cls-1" d="M102.17.81c0-.27,0-.36.06-.39a1,1,0,0,1,.47-.07,1.15,1.15,0,0,1,1.2,1.23,1.09,1.09,0,0,1-.39.95,1.32,1.32,0,0,1-.81.19,1.19,1.19,0,0,1-.5-.05s0-.07,0-.19ZM101.6,4a2.37,2.37,0,0,1-.11.93.66.66,0,0,1-.35.15l-.19,0a.09.09,0,0,0,0,.12l.91,0c.3,0,.53,0,.88,0a.08.08,0,0,0,0-.12l-.15,0a.69.69,0,0,1-.35-.15,2.43,2.43,0,0,1-.1-.93V3.08c0-.17,0-.18.42-.18a.49.49,0,0,1,.5.25c.24.35.55.86.75,1.14.53.76.89,1,1.58,1a2.15,2.15,0,0,0,.31,0,.07.07,0,0,0,0-.09.83.83,0,0,1-.57-.19,8.48,8.48,0,0,1-1.53-2,.2.2,0,0,1,0-.19,1.37,1.37,0,0,0,.93-1.22A1.16,1.16,0,0,0,103.91.4,2.78,2.78,0,0,0,102.7.18c-.6,0-1.11,0-1.69.06a.08.08,0,0,0,0,.12l.18,0a.37.37,0,0,1,.33.18,2.22,2.22,0,0,1,.09.83Z"/><path class="cls-1" d="M115.85.17l.25,0a3.24,3.24,0,0,1,.14.88.1.1,0,0,1-.14,0A1,1,0,0,0,115,.26a.84.84,0,0,0-.9.89,1.2,1.2,0,0,0,.65.94l.7.44a1.6,1.6,0,0,1,.82,1.36,1.41,1.41,0,0,1-1.58,1.38,2.14,2.14,0,0,1-1.1-.27,1.93,1.93,0,0,1-.22-1,.09.09,0,0,1,.13,0,1.47,1.47,0,0,0,1.32,1.12.89.89,0,0,0,1-.94,1.16,1.16,0,0,0-.63-1.07l-.66-.41a1.52,1.52,0,0,1-.83-1.33A1.32,1.32,0,0,1,115.16.08,3,3,0,0,1,115.85.17Z"/><path class="cls-1" d="M126,4a2.37,2.37,0,0,0,.11.93.66.66,0,0,0,.35.15l.19,0a.09.09,0,0,1,0,.12l-.91,0-.92,0a.11.11,0,0,1,0-.12l.19,0a.69.69,0,0,0,.35-.15,2.43,2.43,0,0,0,.1-.93V1.4a2.37,2.37,0,0,0-.1-.92.56.56,0,0,0-.35-.15l-.18,0a.09.09,0,0,1,0-.12c.37,0,.61,0,.92,0s.58,0,.92,0c0,0,0,.08,0,.12l-.19,0a.54.54,0,0,0-.35.15,2.31,2.31,0,0,0-.11.92Z"/><path class="cls-1" d="M135.76.2a2.34,2.34,0,0,1-.54-.05.27.27,0,0,1-.13-.13.07.07,0,0,0-.1,0,6.34,6.34,0,0,1-.29,1,.12.12,0,0,0,.14.06,1.91,1.91,0,0,1,.35-.54c.16-.16.48-.18.94-.18h.44c.22,0,.23,0,.23.29V4a2.28,2.28,0,0,1-.1.91.55.55,0,0,1-.33.14l-.33,0a.09.09,0,0,0,0,.12c.31,0,.62,0,1.05,0s.66,0,1,0a.09.09,0,0,0,0-.12l-.25,0a.59.59,0,0,1-.35-.15,2.08,2.08,0,0,1-.11-.91V.67c0-.29,0-.29.23-.29h.52a1.31,1.31,0,0,1,.89.2,1,1,0,0,1,.21.55.09.09,0,0,0,.13,0A4.43,4.43,0,0,1,139.46,0s-.07,0-.1,0a.39.39,0,0,1-.17.15,1.8,1.8,0,0,1-.52,0Z"/><path class="cls-1" d="M149.65,4a2.31,2.31,0,0,0,.1.91.64.64,0,0,0,.36.14l.3,0a.08.08,0,0,1,0,.12c-.31,0-.61,0-1,0l-1,0a.09.09,0,0,1,0-.12l.25,0a.58.58,0,0,0,.33-.14,2.05,2.05,0,0,0,.11-.91V3.63a2.85,2.85,0,0,0,0-.37,3.12,3.12,0,0,0-.22-.56l-.77-1.55a2.51,2.51,0,0,0-.39-.65.62.62,0,0,0-.33-.15l-.2,0a.08.08,0,0,1,0-.12c.21,0,.49,0,.81,0s.6,0,.82,0a.07.07,0,0,1,0,.12l-.24.06c-.12,0-.18.06-.18.11a2.18,2.18,0,0,0,.25.63c.28.58.56,1.16.87,1.73.25-.44.49-.89.75-1.34a5.07,5.07,0,0,0,.47-1s-.09-.09-.23-.12l-.24,0s0-.1,0-.12c.27,0,.49,0,.72,0s.44,0,.65,0a.08.08,0,0,1,0,.12l-.22.06a.54.54,0,0,0-.37.27c-.38.53-.7,1.11-1,1.67a2.36,2.36,0,0,0-.36.79,4.22,4.22,0,0,0,0,.53Z"/><path class="cls-1" d="M164.06.26c1.47,0,2,1.41,2,2.59,0,1.61-.88,2.25-1.84,2.25-1.49,0-2-1.48-2-2.63C162.2.78,163.23.26,164.06.26Zm.12-.18a2.59,2.59,0,0,0-2.65,2.65,2.5,2.5,0,0,0,2.63,2.54,2.54,2.54,0,0,0,2.6-2.62A2.46,2.46,0,0,0,164.18.08Z"/><path class="cls-1" d="M172.41,1.4a2.28,2.28,0,0,0-.1-.91c-.06-.09-.16-.13-.35-.17l-.1,0a.08.08,0,0,1,0-.12l.41,0h1.79c.48,0,.92,0,1,0,0,.32,0,.67,0,1,0,0-.08,0-.13,0-.06-.34-.16-.64-.58-.73a4.09,4.09,0,0,0-.73,0h-.37c-.2,0-.29,0-.3.09A2.21,2.21,0,0,0,173,1V2.31c0,.24,0,.26.22.26h.27a4,4,0,0,0,.95-.06c.11,0,.17-.07.23-.26l.07-.3a.14.14,0,0,1,.14,0c0,.19,0,.45,0,.73a7,7,0,0,0,0,.72.14.14,0,0,1-.14,0l-.09-.32c0-.14-.09-.22-.21-.26a3.64,3.64,0,0,0-.95-.06h-.27c-.21,0-.22,0-.22.24V4a2.14,2.14,0,0,0,.11.89.55.55,0,0,0,.34.14l.28,0a.08.08,0,0,1,0,.12c-.34,0-.67,0-1,0s-.66,0-.91,0c0,0-.05-.09,0-.12l.2,0c.12,0,.29,0,.35-.14a2.49,2.49,0,0,0,.1-.9Z"/><path class="cls-1" d="M40.82,17.48c0,4.25,2.65,6.51,5.83,6.51A4.66,4.66,0,0,0,51,21a.26.26,0,0,1,.35,0,8.17,8.17,0,0,1-.94,2.74,4.83,4.83,0,0,0-.68.17,11.89,11.89,0,0,1-3.14.45,8.2,8.2,0,0,1-4.78-1.33,6.26,6.26,0,0,1-2.75-5.44,6.38,6.38,0,0,1,2.46-5.07,8.29,8.29,0,0,1,5.26-1.66,17.19,17.19,0,0,1,3.44.39,1.69,1.69,0,0,0,.48.06A26.41,26.41,0,0,0,51,14.18c-.06.08-.28.08-.36,0-.33-1.23-1.15-2.83-4.15-2.83S40.82,13.34,40.82,17.48Z"/><path class="cls-1" d="M62.15,14.32A5.85,5.85,0,0,0,61.88,12a1.42,1.42,0,0,0-.92-.39l-.47-.08c-.08-.14-.08-.25,0-.31.9,0,1.52.06,2.3.06s1.49,0,2.34-.06c.1.06.08.17,0,.31l-.37.06a1.34,1.34,0,0,0-.91.41,5.66,5.66,0,0,0-.26,2.34V16.5c0,.57,0,.63.94.63h5.77c.88,0,.92,0,.92-.63V14.32A5.92,5.92,0,0,0,71,12c-.17-.26-.58-.31-.89-.39l-.39-.08a.2.2,0,0,1,0-.31c.78,0,1.44.06,2.2.06s1.54,0,2.34-.06a.21.21,0,0,1,0,.31l-.41.1A1.59,1.59,0,0,0,73,12a6,6,0,0,0-.27,2.36v6.74A5.81,5.81,0,0,0,73,23.42a1.62,1.62,0,0,0,.9.38l.47.07a.23.23,0,0,1,0,.31c-.78,0-1.62-.05-2.38-.05s-1.52,0-2.22.05a.21.21,0,0,1,0-.31l.41-.07c.43-.1.72-.18.89-.43a6.2,6.2,0,0,0,.26-2.31V18.35c0-.58,0-.62-.92-.62H64.57c-.9,0-.94,0-.94.62v2.71a5.56,5.56,0,0,0,.28,2.35,1.47,1.47,0,0,0,.89.39l.63.07a.29.29,0,0,1,0,.31c-.88,0-1.7-.05-2.6-.05s-1.28,0-2.08.05c-.1,0-.12-.21,0-.31l.29-.05a1.43,1.43,0,0,0,.9-.41,6.18,6.18,0,0,0,.27-2.35Z"/><path class="cls-1" d="M87.17,21a6.11,6.11,0,0,0,.27,2.4,1.57,1.57,0,0,0,.92.39l.49.07c.05.1.05.26,0,.31-1,0-1.6-.05-2.38-.05s-1.37,0-2.38.05c-.1-.05-.1-.21,0-.31l.49-.07a1.51,1.51,0,0,0,.91-.39,5.87,5.87,0,0,0,.28-2.4V14.38a5.78,5.78,0,0,0-.28-2.4,1.46,1.46,0,0,0-.91-.39L84,11.51c-.08-.12-.08-.23,0-.31,1,0,1.58.06,2.38.06s1.52,0,2.4-.06c.09.06.09.19,0,.31l-.49.08a1.51,1.51,0,0,0-.92.39,6.08,6.08,0,0,0-.27,2.4Z"/><path class="cls-1" d="M100.23,17.48c0,4.25,2.65,6.51,5.83,6.51a4.64,4.64,0,0,0,4.35-3,.25.25,0,0,1,.35,0,8.2,8.2,0,0,1-.93,2.74,5,5,0,0,0-.69.17,11.82,11.82,0,0,1-3.14.45,8.17,8.17,0,0,1-4.77-1.33,6.26,6.26,0,0,1-2.75-5.44,6.38,6.38,0,0,1,2.45-5.07,8.32,8.32,0,0,1,5.27-1.66,17.17,17.17,0,0,1,3.43.39,1.75,1.75,0,0,0,.49.06,25.87,25.87,0,0,0,.31,2.79c-.06.08-.27.08-.35,0-.33-1.23-1.15-2.83-4.15-2.83S100.23,13.34,100.23,17.48Z"/><path class="cls-1" d="M123.22,18.34c-.56,0-.56,0-.37-.51l1-2.83c.35-1,.7-1.73.78-1.93a11.37,11.37,0,0,1,.52,1.48l1.09,3.26c.18.51.2.53-.33.53Zm3,.6c.43,0,.48,0,.62.41l.94,2.9a4.21,4.21,0,0,1,.25,1c0,.29-.23.39-.64.47l-.57.11a.21.21,0,0,0,0,.31c.62,0,1.35-.05,2.13-.05,1,0,1.65,0,2.26.05a.26.26,0,0,0,0-.31l-.59-.09c-.8-.16-1-.51-1.6-2.21l-2.55-7.41c-.64-1.89-.88-2.71-1-3a.22.22,0,0,0-.25-.18,2.08,2.08,0,0,1-.94.75,2.91,2.91,0,0,1-.31,1.48l-2,5.17c-.93,2.41-1.34,3.45-1.73,4.32s-.57.94-1,1l-.74.17a.23.23,0,0,0,0,.31c.59,0,1.13-.05,1.83-.05s1.41,0,1.94.05a.29.29,0,0,0,0-.31l-.73-.11c-.44-.08-.58-.2-.58-.41a3.08,3.08,0,0,1,.21-1l1-3c.11-.39.15-.41.62-.41Z"/><path class="cls-1" d="M151.13,22.16a3.28,3.28,0,0,0,.17,1.21,1.42,1.42,0,0,0,.29.21.15.15,0,0,1,0,.18,3.67,3.67,0,0,0-.95.17,13.46,13.46,0,0,1-3.37.51,8,8,0,0,1-5.93-2.21,6.46,6.46,0,0,1-1.78-4.4,6.7,6.7,0,0,1,1.76-4.58,8,8,0,0,1,6.16-2.31,11.5,11.5,0,0,1,2.36.26,7.72,7.72,0,0,0,1.23.15,19.24,19.24,0,0,0,.31,2.81.29.29,0,0,1-.35,0,4.87,4.87,0,0,0-.82-1.6,4.19,4.19,0,0,0-3.35-1.21c-3.87,0-5.54,2.71-5.54,5.76,0,3.84,1.95,6.84,6,6.84a3.17,3.17,0,0,0,2.17-.53,2.28,2.28,0,0,0,.19-1.23V21.4a3.31,3.31,0,0,0-.25-1.68c-.14-.2-.55-.31-1.13-.41l-.74-.12a.2.2,0,0,1,0-.31c.56,0,1.69.06,2.69.06.76,0,1.54,0,2.14-.06a.21.21,0,0,1,0,.31l-.43.08c-.35.08-.54.16-.64.35a3.12,3.12,0,0,0-.21,1.37Z"/><path class="cls-1" d="M168.17,11.39c3.82,0,5.24,3.69,5.24,6.75,0,4.19-2.28,5.85-4.79,5.85-3.86,0-5.29-3.86-5.29-6.84C163.33,12.76,166,11.39,168.17,11.39Zm.29-.45a6.73,6.73,0,0,0-6.88,6.89,6.5,6.5,0,0,0,6.84,6.61,6.61,6.61,0,0,0,6.75-6.83A6.39,6.39,0,0,0,168.46,10.94Z"/><path class="cls-1" d="M44,35.86a2.3,2.3,0,0,0,.66-.06.42.42,0,0,0,.21-.19.11.11,0,0,1,.13,0A5.48,5.48,0,0,0,44.86,37a.13.13,0,0,1-.17,0,1.27,1.27,0,0,0-.26-.69,1.68,1.68,0,0,0-1.13-.25h-.65c-.29,0-.3,0-.3.37v4.18a2.67,2.67,0,0,0,.14,1.15.68.68,0,0,0,.44.19l.33,0a.13.13,0,0,1,0,.16c-.41,0-.76,0-1.25,0s-.94,0-1.33,0a.11.11,0,0,1,0-.16l.42,0a.64.64,0,0,0,.42-.18,2.87,2.87,0,0,0,.13-1.15V36.45c0-.37,0-.37-.29-.37h-.55c-.59,0-1,0-1.2.23a2.59,2.59,0,0,0-.45.68.13.13,0,0,1-.17-.07,8,8,0,0,0,.36-1.3.1.1,0,0,1,.13,0,.28.28,0,0,0,.17.17,2.76,2.76,0,0,0,.68.07Z"/><path class="cls-1" d="M50.86,37.35a2.67,2.67,0,0,0-.14-1.14c-.07-.12-.27-.16-.44-.19l-.23,0c0-.07,0-.12,0-.15.43,0,.74,0,1.12,0l1.14,0s0,.08,0,.15l-.18,0a.68.68,0,0,0-.45.2,2.93,2.93,0,0,0-.12,1.14v1.06c0,.28,0,.31.45.31h2.82c.42,0,.44,0,.44-.31V37.35a3.08,3.08,0,0,0-.13-1.14c-.09-.13-.29-.15-.44-.19l-.19,0a.09.09,0,0,1,0-.15c.38,0,.7,0,1.07,0s.75,0,1.14,0a.1.1,0,0,1,0,.15l-.2.05c-.14,0-.34,0-.43.17A2.73,2.73,0,0,0,56,37.35v3.29a2.61,2.61,0,0,0,.14,1.14.74.74,0,0,0,.43.19l.23,0a.11.11,0,0,1,0,.16c-.38,0-.79,0-1.16,0s-.74,0-1.08,0a.11.11,0,0,1,0-.16l.2,0a.7.7,0,0,0,.44-.21,3.26,3.26,0,0,0,.12-1.12V39.31c0-.28,0-.3-.44-.3H52c-.43,0-.45,0-.45.3v1.33a2.78,2.78,0,0,0,.13,1.13.72.72,0,0,0,.44.2l.3,0a.13.13,0,0,1,0,.16c-.43,0-.82,0-1.26,0s-.63,0-1,0c0,0-.06-.11,0-.16l.15,0a.59.59,0,0,0,.43-.2,2.72,2.72,0,0,0,.14-1.13Z"/><path class="cls-1" d="M63,37.36a2.48,2.48,0,0,0-.13-1.12.66.66,0,0,0-.44-.22l-.18,0a.12.12,0,0,1,0-.15l.59,0h2.3a12.33,12.33,0,0,0,1.28,0c0,.16.1.84.15,1.2a.18.18,0,0,1-.18,0c-.1-.42-.25-.8-.77-.91a4.25,4.25,0,0,0-.93-.07H64.2c-.32,0-.39,0-.41.12a4.15,4.15,0,0,0,0,.69V38.4c0,.3,0,.33.28.33h.53a3.48,3.48,0,0,0,.88-.07c.09,0,.2-.12.26-.36l.1-.36A.15.15,0,0,1,66,38c0,.19,0,.57,0,.92s0,.72,0,.92a.15.15,0,0,1-.17,0l-.11-.38c0-.19-.13-.3-.25-.34a2.82,2.82,0,0,0-.88-.1H64c-.27,0-.28,0-.28.33v1.33a2,2,0,0,0,.16,1c.1.11.29.22,1.12.22,1.15,0,1.58-.11,2-1.08,0,0,.17,0,.18,0a5.09,5.09,0,0,1-.4,1.29l-1.26,0h-2.1c-.47,0-.9,0-1.34,0a.13.13,0,0,1,0-.16l.38,0a.69.69,0,0,0,.43-.19A2.53,2.53,0,0,0,63,40.63Z"/><path class="cls-1" d="M78.54,40.64a2.16,2.16,0,0,0,.15,1c.1.1.3.22,1.14.22,1,0,1.37-.07,1.81-1.08a.18.18,0,0,1,.18,0,6,6,0,0,1-.4,1.3l-1.07,0H78.18l-1.2,0A.12.12,0,0,1,77,42l.28,0a.69.69,0,0,0,.44-.2,2.72,2.72,0,0,0,.14-1.16V37.38a2.75,2.75,0,0,0-.14-1.17c-.09-.13-.29-.16-.44-.19L77,36c0-.06,0-.11,0-.15l1.21,0c.41,0,.74,0,1.15,0,0,0,0,.09,0,.15l-.22,0a.73.73,0,0,0-.45.19,3,3,0,0,0-.13,1.17Z"/><path class="cls-1" d="M88,39.31c-.28,0-.28,0-.18-.25l.49-1.38c.17-.48.35-.85.39-.94a5.41,5.41,0,0,1,.25.72l.53,1.59c.09.25.1.26-.16.26Zm1.45.29c.2,0,.23,0,.3.2l.46,1.41a2.18,2.18,0,0,1,.12.51c0,.14-.11.19-.31.23l-.28,0a.11.11,0,0,0,0,.16c.3,0,.65,0,1,0s.8,0,1.1,0a.15.15,0,0,0,0-.16l-.29,0c-.39-.08-.49-.25-.78-1.08l-1.24-3.61c-.32-.92-.43-1.32-.49-1.48A.11.11,0,0,0,89,35.7a1.06,1.06,0,0,1-.46.37,1.42,1.42,0,0,1-.15.72l-1,2.52c-.46,1.17-.65,1.68-.84,2.1s-.28.46-.51.51l-.36.08a.12.12,0,0,0,0,.16c.29,0,.55,0,.89,0s.69,0,.94,0a.13.13,0,0,0,0-.16l-.35,0c-.22,0-.28-.1-.28-.2a1.31,1.31,0,0,1,.1-.47l.5-1.48c.06-.19.08-.2.31-.2Z"/><path class="cls-1" d="M104.28,36a.61.61,0,0,0-.41.33c-.09.17-.24.48-.67,1.44l-.68,1.53-.89,2.12-.3.8a.14.14,0,0,1-.09,0,.12.12,0,0,1-.09,0c-.29-.78-.87-1.93-1.22-2.67-.4.85-.87,1.76-1.21,2.67,0,0,0,0-.08,0a.14.14,0,0,1-.09,0c-.16-.4-.54-1.25-.66-1.53l-1.81-4a2.2,2.2,0,0,0-.29-.53.61.61,0,0,0-.33-.19l-.3-.06c0-.08,0-.13,0-.15.22,0,.56,0,.9,0s.75,0,1.07,0a.13.13,0,0,1,0,.15l-.24.05c-.2,0-.28.06-.28.19a6.62,6.62,0,0,0,.51,1.29l1.15,2.57c.15.34.47,1,.53,1.08.07-.13.22-.42.44-.91l.3-.62a2.19,2.19,0,0,0,.14-.46,1.27,1.27,0,0,0-.1-.3l-1-2.18a2,2,0,0,0-.29-.5A.55.55,0,0,0,98,36L97.77,36a.1.1,0,0,1,0-.15c.27,0,.61,0,1,0s.74,0,.95,0a.11.11,0,0,1,0,.15l-.24.05c-.22,0-.34.07-.34.2a1.52,1.52,0,0,0,.11.37c.27.62.57,1.21.85,1.81q.3-.63.57-1.29a3.46,3.46,0,0,0,.29-.91c0-.09,0-.13-.18-.16l-.37-.07a.11.11,0,0,1,0-.15c.21,0,.5,0,.86,0s.69,0,.92,0a.11.11,0,0,1,0,.15l-.33.05a.58.58,0,0,0-.4.23,4.22,4.22,0,0,0-.38.64c-.19.35-.62,1.29-.74,1.57a1.38,1.38,0,0,0-.1.28,1.53,1.53,0,0,0,.12.34l.52,1.14c.21.45.41.86.45.93.06-.12.21-.42.37-.79l.55-1.32c.19-.46.69-1.7.76-1.89a4.79,4.79,0,0,0,.29-.91c0-.15-.14-.18-.35-.22l-.28-.05c0-.06,0-.11,0-.15l.92,0c.36,0,.64,0,.86,0a.12.12,0,0,1,0,.15Z"/><path class="cls-1" d="M116.4,35.81a3.23,3.23,0,0,0,.33.06A4.39,4.39,0,0,1,116.9,37a.14.14,0,0,1-.17,0,1.34,1.34,0,0,0-1.34-1.08,1.07,1.07,0,0,0-1.14,1.13,1.54,1.54,0,0,0,.81,1.2l.9.55a2.07,2.07,0,0,1,1,1.73,1.78,1.78,0,0,1-2,1.75,2.78,2.78,0,0,1-1.4-.35,2.48,2.48,0,0,1-.27-1.29s.12,0,.16,0a1.87,1.87,0,0,0,1.68,1.42,1.12,1.12,0,0,0,1.2-1.19,1.47,1.47,0,0,0-.8-1.36l-.84-.52a1.92,1.92,0,0,1-1-1.68,1.68,1.68,0,0,1,1.87-1.61A3.89,3.89,0,0,1,116.4,35.81Z"/><path class="cls-1" d="M123.35,38.89a2.84,2.84,0,0,0,2.84,3.17,2.28,2.28,0,0,0,2.12-1.44.12.12,0,0,1,.17,0A4,4,0,0,1,128,42l-.33.09a5.73,5.73,0,0,1-1.53.22,4,4,0,0,1-2.33-.65A3,3,0,0,1,122.49,39a3.12,3.12,0,0,1,1.2-2.47,4,4,0,0,1,2.57-.81,8.55,8.55,0,0,1,1.67.19.79.79,0,0,0,.23,0,12.47,12.47,0,0,0,.16,1.36s-.14,0-.18,0a1.79,1.79,0,0,0-2-1.38A2.68,2.68,0,0,0,123.35,38.89Z"/><path class="cls-1" d="M134.44,37.35a2.72,2.72,0,0,0-.13-1.14.67.67,0,0,0-.44-.19l-.23,0c0-.07,0-.12,0-.15.43,0,.74,0,1.12,0l1.14,0c.05,0,0,.08,0,.15l-.18,0a.66.66,0,0,0-.45.2,2.93,2.93,0,0,0-.12,1.14v1.06c0,.28,0,.31.45.31h2.81c.43,0,.45,0,.45-.31V37.35a3.08,3.08,0,0,0-.13-1.14c-.09-.13-.29-.15-.44-.19l-.19,0a.09.09,0,0,1,0-.15c.38,0,.7,0,1.07,0s.75,0,1.14,0a.1.1,0,0,1,0,.15l-.2.05c-.14,0-.34,0-.43.17a2.73,2.73,0,0,0-.14,1.15v3.29a2.61,2.61,0,0,0,.14,1.14.74.74,0,0,0,.43.19l.23,0a.11.11,0,0,1,0,.16c-.38,0-.79,0-1.16,0s-.74,0-1.08,0a.11.11,0,0,1,0-.16l.2,0a.7.7,0,0,0,.44-.21,3.26,3.26,0,0,0,.12-1.12V39.31c0-.28,0-.3-.45-.3h-2.81c-.43,0-.45,0-.45.3v1.33a2.78,2.78,0,0,0,.13,1.13.67.67,0,0,0,.44.2l.3,0a.13.13,0,0,1,0,.16c-.43,0-.83,0-1.26,0s-.63,0-1,0c-.05,0-.06-.11,0-.16l.14,0a.63.63,0,0,0,.44-.2,2.78,2.78,0,0,0,.13-1.13Z"/><path class="cls-1" d="M149,35.92c1.86,0,2.55,1.8,2.55,3.29,0,2-1.11,2.85-2.34,2.85-1.88,0-2.57-1.88-2.57-3.33C146.67,36.59,148,35.92,149,35.92Zm.14-.22a3.29,3.29,0,0,0-3.36,3.36,3.17,3.17,0,0,0,3.34,3.22A3.22,3.22,0,0,0,152.44,39,3.11,3.11,0,0,0,149.17,35.7Z"/><path class="cls-1" d="M161.06,35.92c1.86,0,2.56,1.8,2.56,3.29,0,2-1.11,2.85-2.34,2.85-1.88,0-2.57-1.88-2.57-3.33C158.71,36.59,160,35.92,161.06,35.92Zm.15-.22a3.29,3.29,0,0,0-3.36,3.36,3.17,3.17,0,0,0,3.34,3.22A3.21,3.21,0,0,0,164.47,39,3.11,3.11,0,0,0,161.21,35.7Z"/><path class="cls-1" d="M171.41,40.64a2.16,2.16,0,0,0,.15,1c.09.1.3.22,1.14.22,1.05,0,1.37-.07,1.82-1.08a.17.17,0,0,1,.17,0,6,6,0,0,1-.4,1.3l-1.07,0h-2.17l-1.2,0a.12.12,0,0,1,0-.16l.28,0a.69.69,0,0,0,.44-.2,2.72,2.72,0,0,0,.14-1.16V37.38a2.75,2.75,0,0,0-.14-1.17c-.09-.13-.29-.16-.44-.19l-.28,0c0-.06,0-.11,0-.15l1.21,0c.41,0,.74,0,1.15,0,0,0,0,.09,0,.15L172,36a.73.73,0,0,0-.45.19,3,3,0,0,0-.13,1.17Z"/><line class="cls-2" x1="39.02" y1="30.17" x2="175.16" y2="30.17"/></svg>