<?xml version="1.0" encoding="utf-8"?>
<!-- Generator: Adobe Illustrator 26.0.1, SVG Export Plug-In . SVG Version: 6.00 Build 0)  -->
<svg version="1.1" xmlns="http://www.w3.org/2000/svg" xmlns:xlink="http://www.w3.org/1999/xlink" x="0px" y="0px"
	 viewBox="0 0 622.1 172.1" style="enable-background:new 0 0 622.1 172.1;" xml:space="preserve">
<style type="text/css">
	.st0{display:none;}
	.st1{display:inline;}
	.st2{fill:#FFFFFF;}
	.st3{fill:#800000;}
	.st4{fill:#58595B;}
</style>
<g id="DOES_NOT_PRINT" class="st0">
	<rect class="st1" width="621.7" height="172.1"/>
</g>
<g id="rule">
	<g>
		<rect x="142.5" y="85.6" class="st2" width="430.3" height="1.7"/>
	</g>
</g>
<g id="tertiary">
</g>
<g id="secondary">
	<g>
		<path class="st2" d="M61.8,113.4c-0.7-0.3-1.5-0.5-2.1-0.9c0.5,1.5,0.8,2.9,1.6,4.5C61.8,117.9,62.7,115.7,61.8,113.4 M59.7,87.7
			L59.7,87.7c0,2.1-5.8,5.1-8.3,6.5c3.9,1.3,7.5-2.3,7.1-1.4c-0.5,1-5.2,5.1-7.3,7.3c1.6,0.4,3.1-0.8,4.2-1.8
			c1.3-1.1,3.4-3.8,3.1-2.4c-3.4,4.2-6.1,13-4.5,13.6c1-2,4.9-12.2,5.1-12.1c0.3,0.1-0.3,2.7-0.4,4.4c-0.2,3.8-0.2,5.6,0.6,9.4
			c0.4-0.6,0.8-0.6,1.5-0.5c0.1-0.4,0.1-0.3-0.4-0.8c-1.1-1.5,0.2-3.4-0.4-4.6c-0.4-1-0.7-0.2-0.9-1.3c0.3-0.3,1.1-0.4,1.5-0.4
			c0.4-3.9,1.7-5.9,1.2-3.5c-0.3,1.3-0.6,3.3-0.5,3.4c0.2,0.1,0.2,0.1,0.4,0.1c0.1,0,6.6-10.7,3-3.3c-0.5,1-2.4,3.6-2.4,3.6
			c0.5,0.5,1,1.1,1.1,1.5c0,0.1,8.8-11.5,2.8-2.2c-0.4,0.6-2.2,2.5-2.6,3c-0.1,0.1,0.2,2.2,0.2,2.2c0.9-0.6,2.2-1.9,2.8-2.7
			c-0.1-1.2,0.2-1,0.3-2.2c0.3-0.2,0.6,0.3,1.1,0.7c0.2,0.2,6-9.9,2.4-2.3c-0.6,1.2-1.9,2.7-1.9,2.8c0.2,0.3,0.6,1.1,1,2.1
			c0,0,7.8-11.2,3.1-2.7c-0.4,0.7-2.7,3.5-2.7,3.5c0.6,1.4,1.1,2.8,1.1,2.8c-0.1-1.1-0.4-3.2,1.9-5c0.3,1.9,0.8,2,1.5,2.6
			c0.3,0.3,0.8,1.4,0.9,0.4c0.2-2.8-0.7-2.7-1.4-3.9c-0.2-0.3-0.1-0.9,0-0.9c5.6,0.2,5.4,5.4,6.3,5.4c-0.4-1.3-0.5-2.6,0-3.7
			c-1.5-1.1-1.1-2.9-0.8-3.7c-1.7-1.7-0.7-5.4,0.1-6.2c-1.1-1.6,0.3-2.6,0-3.6c-0.5-3.4-3.5-2.4-4.2-5.6c-0.5,0.6-1.4,2.5-0.9,3.2
			c0.5,0.7,1.5,0.8,1.5,1.4c0,0.2,0.1,0.9-0.1,1c-0.6,0.1-1-0.4-1.6-0.7c-1.2-0.5-4,1.5-4.2-0.2c-0.1-1.1,0.4-0.3,0.3-1.3
			c0-1-0.6-0.3-0.6-1.6c0-1,1.2-1.3,1.3-1.7c0.2-1,2,1.4,3-1.1c-0.6,0.1-1.8-0.3-1.7-0.9c0.3-1.6,0.3-5.5-3.3-4.6
			c-1.3,0.3-4.9,2.2-5.4,0.1c-1.3,2.3,1.3,1.9,2,1.9c-0.3,0.2-0.7,0.6-1.7,0.4c-2,1.3-9.5,6.1-11.6,7.2
			C55.2,90.5,59.6,87.7,59.7,87.7 M66.6,106.8c-1,1-1.4,1-1.3,1.5c0.2,0.6,0.7,1,1.1,1.6c0.6,0.5,0.8,0.9,0.4-0.5
			C66.6,108.4,66.7,107.7,66.6,106.8 M82.8,84.8c-0.2-0.4-0.5-0.8-0.9-1c-1.8-0.9-5.3,1-5.2-1.7c0,0-1.2,0.9-0.7,1.9
			C77.3,86.2,80.9,83.4,82.8,84.8 M55.7,57.7c-3,0-3.1,4.6,0,4.6C58.7,62.3,58.7,57.7,55.7,57.7 M55.7,67c-3.2,0-3.2,4.6,0,4.6
			C58.7,71.6,58.7,67,55.7,67 M58.9,61.6h2.7V59h-2.7V61.6z M58.9,70.8h2.7v-2.6h-2.7V70.8z M66.2,67.9c-1.2,0.7-1,1.6-0.6,2.1
			c0.2-0.2,1-0.7,1.3-1C66.7,68.9,66.3,68.3,66.2,67.9 M69,63.8c0-0.3,0-0.5,0-0.6c0-0.2-0.4-0.8-0.5-0.8c-0.1,0-0.4,0.3-0.6,0.5
			c-0.1,0.2-0.1,0.6,0.1,0.8C68.3,64.2,68.4,64.2,69,63.8 M69,65.1c0-0.1,0-0.2,0-0.3c0-0.1,0-0.4,0-0.8c-0.4,0.2-0.5,0.4-0.9,0.2
			c-0.6,0.5,0.3,0.8,0.5,1C68.8,65.2,68.9,65.2,69,65.1 M73.9,57.7c0.2-0.2,0.7-0.7,1-1.1c-0.2-0.1-0.5-0.3-0.6-0.7
			C73.7,56.5,73.6,56.8,73.9,57.7 M78.2,58.3c-0.4,0.3-0.7,0.5-0.8,0.7c0.1,0.2,1,0.8,1.4,0.6c0.5-0.2,0.7-0.7,0.2-0.9
			C78.7,58.5,78.5,58.4,78.2,58.3 M78.6,57.6c0.2-0.2,0.4-0.3,0.5-0.4c-0.3-0.3-0.9-0.6-1.1-0.6c-0.2,0-0.7,0.2-0.5,0.4
			c0.2,0.2,0.4,0.5,0.8,0.6C78.3,57.6,78.4,57.6,78.6,57.6 M79.8,69.5c0-0.3,0-0.6,0-0.8c0-0.2-0.7-0.7-0.8-0.7
			c-0.2,0-0.2,0.1-0.3,0.4c-0.1,0.2,0,0.6,0.1,0.7C79.1,69.4,79.4,69.5,79.8,69.5 M78.8,69.6c-0.6,0.5,0.1,1,0.3,1.2
			c0.2-0.1,0.5-0.2,0.7-0.2c0-0.1-0.1-0.2-0.1-0.3c0-0.1,0-0.3,0-0.5C79.4,69.8,79.2,69.8,78.8,69.6 M77.4,70.4L77,70.9l-0.4,0.4
			c-0.3-0.3-0.5-0.4-0.6-0.6l0-1.9l-0.6-0.3c-0.3,0.2-0.5,0.1-0.3-0.1l0.9-0.8l0.2,0l0.6,0.9l0,1.8C77.2,70.4,77,70.3,77.4,70.4
			 M77.2,64.6c-0.3-0.8,0.2-1.6,0.5-1.9c0.2-0.2,0.7-0.6,1-0.8c0.3,0.2,0.6,0.3,0.7,0.4c-0.1,0.2-0.1,0.5-0.5,0.5
			c-0.5,0-0.9-0.1-1.2,0.2c-0.3,0.3-0.1,1.1,0.3,1.4c0.3,0.2,1,0.6,1.1,0.3c0.2-0.4,0.4-0.2,0.2,0.1c-0.2,0.2-0.5,0.7-0.6,1
			C78.2,65.7,77.5,65.4,77.2,64.6 M78,70.5c0-0.5,0.2-0.8,0.6-1.2c0,0,0,0-0.1,0c-0.1-0.1-0.2-0.9-0.1-1.1c0.2-0.2,0.9-0.9,1.4-1
			c0.3,0,0.8,0.7,1.1,1c-0.1,0.1,0.1,2.1,0.1,2.3c0.1,0.2,0.5,0.3,0.6,0.1c0.1-0.2,0.3,0,0.1,0.1c-0.1,0.1-0.6,0.5-0.8,0.7
			c-0.2-0.2-0.6-0.4-0.8-0.7c-0.5,0.1-1,0.5-1.4,0.8C78.1,71.4,78,71,78,70.5 M82,65.4l-0.4,0.4l-0.5,0.4c-0.3-0.3-0.5-0.4-0.5-0.6
			l0-2l-0.5-0.3c-0.3,0.2-0.5,0.1-0.2-0.1l0.9-0.8l0.2,0l0.4,0.6l0,2.1C81.6,65.4,81.6,65.3,82,65.4 M81.5,59
			c-1.1-0.1-0.8-0.5-0.6-0.4C81.9,58.6,81.7,59,81.5,59 M81.6,58.3c-1.1,0-0.8-0.5-0.6-0.4C81.9,57.9,81.7,58.3,81.6,58.3
			 M80.7,60.7l0.5,0.5v0.5L80.8,62h-0.3l-0.3-0.3l0-0.6L80.7,60.7z M80.2,56.7c-0.1,0.1-0.5,0.5-1,0.9c0.1,0,0.1,0,0.2,0.1
			c0.8,0.5,1.1,1.1,0.3,1.7c-0.4,0.3-1.1,0.7-1.9,0.7c-0.5,0-1.4-0.4-1.5-0.6c0.4-0.4,0.8-0.8,1.2-1.1c-0.5-0.4-1-0.9-0.6-1.5
			c0.3-0.4,1.2-1.1,1.9-1.1C79.5,55.9,79.9,56.4,80.2,56.7 M76,59.2c-0.2,0.1-0.6,0.6-1,0.6c-1,0-2.4-0.8-2.2-2.2
			c0.2-1.5,1.4-2,1.8-2c0.6,0,0.7,0.5,1,0.8c-0.5,0.4-1.3,1.2-1.7,1.6c0.1,0.2,0.7,1.2,1.8,0.9C76.3,58.8,76.5,59,76,59.2
			 M72.6,56.9c-0.2,0.2-0.6,0.5-0.8,0.6c-0.2-0.1-0.5-0.5-0.6-0.6C71.1,56.9,71,57,70.8,57c0,0.3,0,2.6,0,2.9c-0.3,0-0.6,0-0.9,0
			c0-0.3,0-2.2,0-2.5c0-0.4-0.4-0.4-0.8-0.5c0.2-0.3,0.7-0.6,0.9-0.8c0.4,0.3,0.6,0.3,0.8,0.5c0.2-0.1,0.7-0.4,0.9-0.6
			c0.2,0.2,0.5,0.6,0.6,0.7C72.6,56.6,72.8,56.7,72.6,56.9 M69,61.8c0.3,0,0.6,0.6,0.9,1c-0.1,0.1-0.1,2.1-0.1,2.3
			c0.1,0.1,0.3,0.2,0.4,0.2c0.2-0.2,0.3,0,0.1,0.1c-0.1,0.1-0.8,0.7-0.9,0.9c-0.2-0.2-0.3-0.4-0.3-0.8c-0.4,0.1-0.8,0.3-1,0.7
			c-0.4-0.2-0.8-0.6-0.8-1c0-0.5,0.3-0.7,0.6-1c-0.1,0-0.1-0.1-0.2-0.1c-0.1-0.1-0.2-0.8-0.1-1C67.7,62.4,68.5,61.8,69,61.8
			 M68.3,60.7c-0.1-0.2-0.2-0.4-0.5-0.3c-0.8,0.2-1.6,0.5-2.2,0.1c-0.6-0.4-1.2-0.5-1.2-2c0-0.9,0.8-1.6,1.3-1.9
			c0.6-0.3,1.6-0.1,2.1,0c0.2,0.1,0.4,0,0.4-0.2c0-0.2,0.2-0.1,0.2,0c0,0.1,0,2,0,2.1c0,0.1-0.3,0.2-0.3,0c0-0.2-0.1-0.6-0.1-0.9
			c-0.1-0.5-1.4-1.4-2.3-0.2c0,0.1-0.4,0.7-0.3,1.2c0,0.4,0.1,0.9,0.3,1.2c0.7,1,1.7,0.7,2.3-0.2c0.2-0.3,0.2-0.7,0.2-0.9
			c0-0.1,0.3-0.1,0.3,0c0,0.2,0,1.4,0,1.5c0,0.2,0.1,0.3,0.2,0.4C68.7,60.9,68.5,61.1,68.3,60.7 M64.5,62.7c0.4-0.5,1.2-1,1.8-1.2
			c0.2,0.2,0.4,0.5,0.7,0.9c-0.3,0.2-0.5,0.5-0.7,0.7c-0.1-0.1-0.8-1.2-1.3-0.4c-0.3,0.4-0.5,1.5,0.3,2.2c0.4,0.3,0.9,0.4,1.5,0.3
			c-0.3,0.4-0.4,0.5-0.5,0.8c-0.9,0.2-1.2-0.1-1.6-0.5C63.7,64.7,63.9,63.5,64.5,62.7 M64.8,69.5c0.2-1.5,1.6-2.1,2.1-2.4
			c0.1,0.4,0.6,1.2,0.9,1.5c-0.5,0.4-1.6,1.3-2,1.6c0.2,0.4,1.1,0.7,1.4,0.4c0.2-0.2,0.5-0.1,0.2,0.1c-0.3,0.4-0.6,0.9-0.8,1.2
			C66,71.7,64.6,70.9,64.8,69.5 M68.2,68.2c0.4-0.3,0.6-0.6,0.9-0.8c0.2,0.4,0.3,0.7,0.6,0.9c0.3-0.2,0.8-0.5,1-0.8
			c0.2,0.1,0.6,0.3,0.6,1.1c0,0.7,0.1,1.9,0.1,2.2c0,0.1,0,0.1,0.3,0c0.2-0.1,0.3,0,0.1,0.2c-0.2,0.1-0.9,0.6-1.1,0.9
			c-0.3-0.5-0.3-0.8-0.2-1.3c0.1-0.4,0-1.5,0-1.7c0-0.2-0.4-0.3-0.5-0.5c-0.2,0.2-0.2,0.2-0.4,0.4c0,0.3,0,2.6,0,2.9
			c-0.5,0-0.5,0-0.7,0c0-0.4,0-2.2,0-2.5C68.7,68.7,68.4,68.5,68.2,68.2 M72.1,65.6c-0.2,0.2-0.7-0.1-0.9-0.4
			c-0.3-0.5-0.2-1.6-0.2-2.4c0,0-0.2-0.2-0.3-0.3c-0.2-0.1-0.3-0.1,0.1-0.3c0.4-0.2,1.1-1.2,1.2-1.5c0.1-0.2,0.2,0,0.1,0.2
			c-0.3,0.5-0.2,1.1-0.1,1.3c0,0.1,0.9,0,1,0c0.1,0,0.1,0.4,0,0.3c-0.1,0-1.2,0.1-1.2,0.1c-0.1,0,0.1,1.8,0.2,1.9
			c0,0,0.4,0.3,0.5,0.2c0.2-0.2,0.3,0,0.1,0.2C72.6,65.1,72.4,65.4,72.1,65.6 M72.6,68.2c0.3-0.2,0.9-1.3,1-1.5
			c0.1-0.2,0.2-0.2,0.2,0.1c0,0.4-0.2,1.2-0.1,1.4c0,0.1,0.6,0.1,0.7,0.1c0.1,0,0.1,0.3,0,0.3c-0.1,0-0.7,0.1-0.7,0.1
			c-0.1,0,0,1.3,0.1,1.4c0.2,0.2,0.4,0.4,0.7,0c0.2-0.2,0.3,0,0.1,0.2c-0.1,0.1-0.6,0.6-0.7,0.9c-0.1,0.3-0.7,0.1-0.9-0.2
			c-0.3-0.4-0.2-1.4-0.2-2.2C72.9,68.7,72.3,68.4,72.6,68.2 M76.6,66.5c-0.3,0.3-0.5,0.5-0.7,0.8c-0.2-0.1-0.5-0.4-0.8-0.6
			c0.4-0.2,0.6-0.4,0.8-0.7C76,66.3,76.4,66.5,76.6,66.5 M74.8,62.2c0.6,0.2,1.6,0.1,1.9,0.9c0.3,0.9-0.3,2-1,2.1
			c-0.6,0.1-1.2-0.2-1.5-0.1c-0.2,0-0.3,0.1-0.3,0.2c0,0.2-0.3,0.3-0.3,0c-0.1-0.2-0.1-1.3-0.1-1.5c0-0.3,0.3-0.3,0.3,0
			c0.1,0.3,0.1,0.5,0.4,0.8c0.2,0.2,1.4,0.5,1.9,0.2c0.4-0.3,0.3-0.9-0.1-1.2c-0.4-0.2-1.9-0.6-2.1-1c-0.4-0.7,0.3-1.4,0.7-1.6
			c0.5-0.3,1.2-0.2,1.4-0.2c0.2,0,0.5,0.1,0.5-0.2c0-0.2,0.2-0.2,0.2,0c0.1,0.7,0.1,0.3,0.1,1c0,0.3-0.1,0.3-0.3,0.1
			c-0.1-0.2-1-0.9-1.8-0.5C74,61.6,74.2,62,74.8,62.2 M77.2,73.6c3.3,0.2,6.1,1.7,6.1,1.7V54.1c0,0-4.9-3.4-12.8-0.4
			c-2.3,0.9-8,0.1-8,0.1v21.8C67.5,76,74,73.4,77.2,73.6 M84.9,80.7c0,0.3-0.4,0.7-0.4,0.7l1.3-0.7c-0.3-0.2-1-0.6-1.3-0.7
			C84.6,80,84.9,80.3,84.9,80.7 M86.9,80.6c-1.2,0.2-2.1,1.6-3.5,1c-0.2-0.1-0.6-0.2-0.5-0.5c0.2,0.1,0.6,0.2,0.9,0.3
			c0,0-0.7-0.6-0.1-1.4c-0.8,0.5-1.1,0.4-1.1,0.1c0-0.1,1.1-0.9,2.1-0.5C85.5,79.9,86.1,80.5,86.9,80.6L86.9,80.6z M83.5,78.1
			c-0.7,0.1-1.5,0.5-1.7,1.2c-0.4,0.4-0.4-0.7-1.2-0.2c-0.4,0.5,0.6,1.6,0.4,1.6c-0.9,0.3-0.8-1.4-1.3-1.4c-0.8,0.3-2.7,2-0.8,3.4
			c-0.1-0.9,1.7-1.9,2.3,0.1c1.8-0.1,2.4,0.9,2.6,1.5c2.6,0.5,1.9,2.2,1.8,2.2c-0.2-0.4-1.4-2.1-3.2-0.9c-0.4,0.3-1.2,0.5-1.5,0.2
			c0,0.6,0.8,1.1,1.3,1c1.6-0.4,2,1.1,0.8,1.5c0.3,0.4,0.8,0.4,1.3,0.1c0.7-0.4,0.8-0.8,1-1.1c0.4,2.1-2.2,2.3-3.1,2.5
			c0.1,0.5,0.4,0.6,1,0.7c-2.8,0.1-3.4,2.8-3.2,4.3c0.6,0,1.6-1.3,1.5-0.5c-2,2.1-2.7,5-1.6,6.8c0.5-0.2,0.7-0.8,0.8-1.2
			c0.1-0.1,1.1,0.4-0.5,2.4c-0.1,0.5-0.7,2.1,0.6,2.4c0.5-0.6,0.4-1.1,0.5-1.7c0.4-0.1,0.6,1,0.5,1.4c-1.7,0.7-1.5,5.8,0.5,8.5
			c-0.9-2-0.8-4.5,0-6.6c0.6-1.6,1.9-5.1,1.9-5.1c0.7,0.9,1.7,4.8,1.7,6.4c1-0.9,1.2-1.9,2.1-2.6c0.4,1.4,0.6,2.3,0.9,3.6
			c0.4-1.2,1.5-2.6-0.1-6.6c0.3-0.3,0.9,1.4,1.1,1.3c0.1-0.1,0.4-0.9-0.2-2.4c-1.1-1-1.3-2.5-1.2-2.6c0.1-0.1,0.6,1.6,1.2,1.6
			c0.1-1.3,0.4-2.6,0.3-3.6c0-0.3-0.4-1.6-1.7-2.7c-0.7-0.6-1-1.9-0.9-2.2c0.7,0.6,0.5,1.1,1.1,1.3c0.2-0.5,0.1-2.5-0.6-3.4
			c-0.4-0.7-0.2-0.6,0.3-0.2c0.6,0.7,0.3,0.7,0.9,1c1.2-2.8,0.1-3.3,0.2-3.5c0.1-0.2,0.9,1.3,1.6,0.7C89.5,87,89.5,86,89.4,85
			c-0.1-0.8-0.6-1.1-0.4-1.3c1.2,0.9,1.5-0.1,1.5-0.3c-0.2,0.1-1.3,0.3-1.4-1.3c-0.1-0.6-1-0.9-1-0.9c0.6-0.1,2.5-0.2,2-2.1
			c-0.2,0.4-0.8,1.2-2,0.9c0,0,0.8-0.2,0.6-1C86.9,80,85.4,77.9,83.5,78.1 M99.7,58.5c0.3,0.3,1.1,0.6,1.6,0.8c0-0.4,0-0.7,0-0.9
			c0-0.2-0.8-0.7-1-0.7c-0.2,0-0.4,0.2-0.6,0.5C99.6,58.4,99.6,58.4,99.7,58.5 M100.6,60.8c0.3-0.1,0.5-0.2,0.7-0.2
			c0-0.1,0-0.2,0-0.4c0-0.1,0-0.4,0-0.7c-0.4-0.1-0.9-0.3-1.3-0.6c0.1,0,0.1,0.1,0.2,0.1C99.8,59.9,100.4,60.6,100.6,60.8
			 M100.6,65.3c0.2,0.5,1,1.1,1.2,1.2c0.3-0.4,0.5-1.2,0.4-1.8c-0.1-0.5-0.7-1-1.2-1.2C100.4,63.9,100.4,64.6,100.6,65.3 M89.8,69.8
			c-0.4,0.8-0.1,0.9,0.2,1.1c0.3-0.1,0.5-0.3,0.7-0.4c0-0.1,0-0.4,0-0.7C90.2,69.9,90.1,70,89.8,69.8 M90.7,69.6c0-0.3,0-0.7,0-0.8
			c0-0.2-0.5-0.6-0.6-0.6c-0.2,0-0.3,0.1-0.5,0.4c-0.1,0.2-0.1,0.8,0,0.8C90,69.7,90.3,69.7,90.7,69.6 M91.3,71.6
			c-0.3-0.2-0.5-0.3-0.6-0.6c-0.8,0.3-1,0.7-1.5,1c-0.3-0.2-0.5-0.7-0.5-1.1c0-0.4,0.4-1.1,0.7-1.3c0,0,0,0-0.1-0.1
			c-0.1-0.1-0.2-0.7-0.1-0.9c0.2-0.2,0.8-1.2,1.4-1.2c0.4,0,0.6,0.4,1,0.7c-0.1,0.1,0,1.7-0.1,1.9c0.3,0.4,0.5,0.4,0.7,0.3
			c0.2-0.1,0.3,0,0.1,0.1C92.2,70.6,91.5,71.4,91.3,71.6 M93.2,68.4c0.1,0-0.7-0.3-0.4-0.5c0.6-0.3,1.2-0.9,1.3-1.2
			c0.1-0.2,0.3-0.1,0.2,0.1c-0.1,0.2-0.2,0.8-0.1,1c0,0.1,0.5,0.1,0.7,0.1c0.1,0,0.1,0.4,0,0.4c-0.2,0-0.7,0-0.7,0c-0.1,0,0,2,0,2.2
			c0.1,0.2,0.5,0.3,0.7,0.1c0.2-0.2,0.4,0,0.1,0.2c-0.1,0.1-0.5,0.7-0.7,0.8c-0.3,0.1-0.7-0.1-0.9-0.4C93,70.8,93.2,69.3,93.2,68.4
			 M94.5,65.7c-0.3-0.2-0.8-0.6-1.1-1C93,65.2,92.9,65.7,92,66c0.5-0.4,0.9-1.3,0.9-2.2c0-0.8-0.5-1.2-0.8-1.3
			c-0.3,0.2-0.6,0.4-0.8,0.4c-0.2,0.1-0.2-0.2-0.1-0.3c0.4-0.2,1.3-0.9,1.4-1c0.4,0.1,0.8,0.4,0.9,0.7c0.3-0.2,0.8-0.7,0.9-0.9
			c0.2,0.3,0.7,0.7,1.3,0.9c-0.5,0.9-1.7,0.4-1.8,0.1c-0.2,0.3-0.2,0.5,0,0.9c0.2,0.5,1.2,1,1.7,1.2C95.4,64.7,94.7,65.5,94.5,65.7
			 M95.3,68.8c0.3-0.4,0.7-0.6,0.9-0.8c0.4,0.3,0.5,0.4,0.7,0.7c0,0.5-0.1,1.5-0.1,1.9c0,0.4,1.4,0.6,1.5,0.1c0.1-0.5,0-1.2,0-1.5
			c0-0.2-0.6-0.3-0.9-0.3c0.4-0.4,0.7-0.7,0.9-0.9c0.3,0.3,0.7,0.6,0.9,0.9c0,0.5-0.1,1.8,0,2.1c0.1,0.3,0.1,0.4,0.3,0.5
			c-0.3,0.2-0.5,0.3-0.6,0.5c-0.3-0.1-0.7-0.5-0.7-0.8c-0.3,0.2-1.3,0.6-1.6,0.7c-0.3-0.4-0.6-0.4-0.6-0.9c0-0.4,0.1-1.6,0-1.9
			C95.8,68.9,95.6,68.9,95.3,68.8 M99.8,65.2c0-1.1,0.8-2.1,2-2.5c1,0.3,1.3,1.3,1.4,1.9c0,0.5-0.3,1.2-0.6,1.6
			c-0.4,0.2-0.8,0.6-1.1,1C100.3,67.2,99.7,65.8,99.8,65.2 M99.9,69.5c0.3-0.2,1-0.8,1.2-0.9c0.4,0.3,0.6,0.6,0.8,0.8
			c0.3-0.1,0.7-0.4,0.9-0.6c0.3,0.2,0.7,0.6,0.9,0.7c0.2-0.2,0.4,0,0.2,0.2c-0.2,0.2-0.6,0.6-0.8,0.7c-0.3-0.1-0.7-0.6-0.8-0.7
			c-0.1,0.1-0.2,0.1-0.3,0.2c0,0.3,0,2.5,0,2.8c-0.4,0-0.7,0-0.9,0c0-0.4,0-2.3,0-2.6C101,69.6,100.3,69.5,99.9,69.5 M104.4,65.5
			c-0.3,0-0.6-0.1-0.7-0.1c-0.2-0.1-0.1-0.3,0.1-0.3c0.2,0,0.5,0.1,0.7,0.1C104.6,65.2,104.6,65.5,104.4,65.5 M104.5,64.8
			c-0.3,0-0.6-0.1-0.7-0.1c-0.2-0.1-0.1-0.3,0.1-0.3c0.2,0,0.5,0.1,0.7,0.1C104.6,64.5,104.6,64.8,104.5,64.8 M102.7,60.5l-0.9,0.9
			c-0.3-0.2-0.4-0.4-0.5-0.7c-0.7,0.1-1.1,0.5-1.4,0.8c-0.3-0.2-0.7-0.9-0.7-1.4c0-0.5,0.3-1.1,0.6-1.4c0,0,0,0,0.1,0
			c-0.1-0.1-0.3-0.2-0.4-0.3c-0.1-0.1-0.1-0.3,0-0.5c0.2-0.2,0.7-0.9,1.2-1c0.3,0,0.8,0,1.4,0.6c-0.1,0.1-0.1,2-0.1,2.2
			C102.3,60.2,102.7,60.5,102.7,60.5 M96.9,63.9c-0.1,0.7,0.5,1.3,0.9,1.5c0.4,0.2,1,0.1,1.2,0.1c0.2,0,0.1-0.1,0.2-0.2
			c0.1-0.1,0.3,0,0.2,0.1c-0.1,0.1-1,1-1.3,1.2c-0.2,0.1-0.8,0-1.1-0.4c-0.6-0.7-1-1-0.8-2.2c0.1-0.9,1.6-1.6,1.9-1.8
			c0.1,0.1,0.8,0.8,1.1,1c-0.1,0.1-0.5,0.3-0.8,0.3c-0.4,0-0.6-0.3-0.8-0.6C97.4,63.2,97,63.4,96.9,63.9 M98.8,57
			c-0.2,0-1.8,0.2-1.8,0.2c-0.1,0,0.1,2,0.1,2.2c0.1,0.2,0.2,0.4,0.4,0.3c0.2-0.2,0.4,0.1,0.2,0.3c-0.1,0.1-0.5,0.8-0.6,0.9
			c-0.3,0.2-0.6-0.4-0.7-0.7c-0.2-0.5-0.3-1.9-0.3-2.8c0.1,0-0.8-0.3-0.4-0.5c0.7-0.3,1.4-1.3,1.5-1.5c0.1-0.2,0.3-0.1,0.2,0.1
			c-0.2,0.5-0.2,0.9-0.1,1.1c0,0.1,1.4,0,1.6,0C98.9,56.7,98.9,57,98.8,57 M95,59.5l-0.7,0.9h-0.6c-0.3-0.3-0.5-0.6-0.6-0.8l0-2.1
			L92.3,57c-0.1,0.2-0.4,0.2-0.3,0l1.1-0.9l0.2,0l0.7,0.7l0,2.2C94.3,59.3,94.5,59.4,95,59.5 M94.2,55.3l-0.4,0.3h-0.3l-0.3-0.3
			l0-0.6l0.5-0.4l0.5,0.5V55.3z M92,55.2c-0.4,0.1-0.6,0.5-0.7,0.9c-0.1,0.4-1.3,4.1-1.5,4.3c-0.3-1.1-1.6-3.9-2-4.5
			c-0.3-0.5-0.7-0.4-1-0.4c-0.3,0-0.2-0.3,0.1-0.3c0.4,0,2.4,0.2,2.9,0.3c0.2,0,0.2,0.2-0.1,0.3c-0.1,0-0.5,0.2-0.5,0.3
			c0,0.2,0.7,1.8,0.9,2.1c0.2-0.4,0.9-2.2,0.7-2.5c-0.2-0.4-0.2-0.4-0.5-0.5c-0.3,0-0.3-0.2,0.1-0.3c0.3-0.1,1.3-0.1,1.6-0.1
			C92.3,54.9,92.4,55.1,92,55.2 M87.5,61.8c0.6-0.3,2-0.6,2.5-0.4c0.2,0.1,0.5,0,0.5-0.1c0-0.2,0.2-0.1,0.2,0c0,0.1,0,1.7,0,1.8
			c0,0.1-0.2,0.1-0.2,0c0-0.2,0-0.3-0.2-0.6c-0.6-0.9-2.1-0.9-2.9,0.1c-0.3,0.3-0.4,0.9-0.1,1c0.3,0.1,1.4,0,1.8-0.1
			c0.4-0.1,1.3-0.2,1.4-0.3c0.1-0.1,0.2-0.1,0.2,0c0,0.2,0,0.8,0,1c0,0.2-0.1,0.1-0.2,0c-0.1-0.1-0.9-0.1-1.3-0.2
			c-0.6-0.1-1.5-0.2-1.8-0.1c-0.3,0.1-0.1,0.6,0.2,0.9c0.8,1,2.2,1.1,2.8,0.2c0.2-0.3,0.2-0.4,0.2-0.6c0-0.1,0.2-0.2,0.2,0
			c0,0.1,0,1.4,0,1.5c0,0.1-0.2,0.2-0.2,0c0-0.3-0.2-0.3-0.5-0.2c-0.8,0.2-1.9,0.3-2.6-0.1c-0.7-0.4-1.3-0.5-1.3-2.1
			C86,62.9,86.9,62.1,87.5,61.8 M86.3,66.5c0.2,0,0.8,0,1,0c0,0.5,0,3.7,0,4c0,0.3,0.3,0.4,0.6,0.3c0.1-0.1,0.3,0,0.1,0.2
			c-0.3,0.2-0.7,0.8-0.9,1c-0.4-0.2-0.8-0.6-0.7-0.9C86.5,70.7,86.3,66.9,86.3,66.5 M91,73.6c2.2,0,10.8,2.4,15,2.1V54
			c0,0-6.1,0.9-11.4-1.1c-4.3-1.6-10.3,1.2-10.3,1.2c0,0.7,0,21.3,0,21.3S86.5,73.6,91,73.6 M106.7,67.1v4.1c0,0,2.3,0,4.9-1.7
			c0.8-0.5,1.9-0.3,2.5,0.2h0c0,0-0.3-2.7-2.6-2.4C107.2,68,106.7,67.1,106.7,67.1 M114.1,61.1c0,0.3,0.1,0.5,0.1,0.6
			C114.1,61.6,114.1,61.4,114.1,61.1c0,0-0.1-2.4-2.7-2.4c-0.8,0-1.9,1-4.5-0.1v4.1c1.1,0.3,4-1.4,5.2-1.9
			C112.8,60.5,114,60.7,114.1,61.1 M111.2,104.5c-0.2-6.5-4.2-13.8-3.1-12.4c2.7,3.4,3.6,10.7,5.5,17c0,0,1.2,0.6,0.9-7.4
			c-0.1-1.6-0.7-3.8-1.5-5.3c-1.6-3-4.8-8-4.7-8c0.8-0.6,2.7,3.7,4.3,5.4c1.1,1.1,4,2.2,4.2,2c-2.4-4.6-8.1-8.9-7.5-9.4
			c4.2,4,5.6,4.1,5.7,3.9l-3.8-3.7c-1.1-1.4-2.5-2.5-2.3-2.5c1.7,0.4-0.9-1.4-2.9-2c-0.4-0.1-0.9-0.1-1-0.3c0-0.3,0.5-0.2,0.9-0.3
			c0.3-0.1,0.5-0.3,0.6-0.7c-0.8,0.2-1.5,0-2.2-0.3c-1.3-0.6-3.8-1.3-4.9-0.9c-0.6,0.3-0.8,0.2-1.5,0.8c-0.3-0.1-1.2-0.7-2.4,0.8
			c-0.4,0.4-0.8,1-0.8,1.4c-0.1,1,0,0,0.3,1c0.1,0.4-0.3,1.1-2.1,1.7c-0.7,0.2-0.5,0.9-0.5,0.9c0.3-0.2,0.9-0.5,1.7-0.2
			c1.6,0.8,1.9-0.4,2.9-1.3c0,0-0.3,1.1,0,1.1c1.3,0.3,0.8,1.2,0.7,1.3c-1.6,1.4-0.9,1.9-1.5,2.8C95.8,90.7,95,91,93.7,91
			c-1.7-0.1,2.2-2.6-1.5-3.7c0.6,1,0.8,1.8-0.5,2.5c-0.8,0.5-0.4,2.9-2.5,1.8c0,0-0.2,1.8-0.4,1.9c2.9,2.5,1.3,3.9,1.4,7.5
			c0.9,2.3-0.1,3.4-0.3,3.5c0.1,1.5,0.3,2.4,1.3,3.6c0.7,0.9-0.1,2.3,0.7,3.3c0.7-2.3,1.4-1.4,1.6-4.6c0.3-0.5,1.4-1.5,2-1.6
			c0,2,0.7,3.7,0.6,4.6c0,0,1.6-0.3,2.2-0.1c0.4,0.1,0.7,0.7,0.7,1c-0.6,0.4-0.6,0.2-1.4,0.8c-1.5,1.1-2.2,3.3-2.2,3.3
			c0,0,3.5-2.8,3.7-3.3c0.2-0.4,0.4-1,0.6-1.6c0-0.1-1.8-1.1-2.3-2.1c-1.6-3,2.4,1.8,2.5,1.4c0.2-1,1-2,1-2
			c-0.3-0.3-0.9-0.5-1.8-2.2c-2.2-3.8,2.5,1.6,2.5,1.6c1.2-0.7,1.2,0.2,1.4,1.2c0,0.1,2.1,1.6,2.2,1.7c0.6-0.5,1-1.3,1.3-1.8
			c0-0.1-3.8-3.4-4.4-4.6c-5.2-9,4.2,4,4.7,3.6c0.2-0.7,0.3-1.7,0.3-3c0,0-1.8-1.3-2.9-3.2c-4.4-7.3,2.9,2.2,2.9,2.1
			c-0.1-1.6-1.4-8.3-0.5-6.3c0.5,1,1.9,5.4,1.6,9.8C108.4,105.5,110.4,104.7,111.2,104.5 M102.9,111.6c0,0-0.7-0.5-0.7-0.4
			c-0.1,0.3-0.3,0.7-0.5,1.1C101.5,112.6,102.1,112.4,102.9,111.6 M102.6,108.9c-0.1,0.6-0.1,1.1-0.3,1.7c0,0.1,0.7,0.3,1,0.6
			c0.4-0.4,0.8-0.6,1.3-1.2c-0.1-0.1-1.9-1.7-1.9-1.6C102.7,108.7,102.7,108.7,102.6,108.9 M108.3,112.7c0.8-0.7,1.3-1.8,2.3-2.2
			c-0.8-0.7-1.6,0.7-2,0.2c0.7-1.1,1.2-2,1.3-3.4c0-0.8,0.9-1.5,1.1-1.9c-0.9,0.1-3.2,1.5-3.6,2.3c-1.5,2-1.5,4-7.9,6.8
			c-0.3,0,1.2-1.1,1.6-2.4c0.2-0.6,1.1-3.4,0.5-4.7c-1.3,1.4-1.1,1.8-1.4,2.8c-1,2.6-1.5,2.9-3.9,4.5c-0.3,0.2-2.2,3.1-4.6,3.2
			c0.2-0.1,0.1-0.7,0.9-1.2c2.7-1.8,1.7-5.6,5.2-6.2c-1.7-0.6-2.9,1.1-3.3,0.9c1.4-2,0.2-3.6,0.4-5.2c-0.5,0.3-0.9,0.8-1,1.3
			c-0.3,2.9-1.6,3.3-1.7,4.6c0.3,2-1.4,3.6-2.5,5c-0.2-1.2,0.1-2.2,1.6-3.2c0.8-0.5-0.1-2.2-0.1-2.2c-0.3,1.8-1.3,2.3-2,2.4
			c-0.5,0.1,1.9-2.5,1.6-4.8c-0.1-1-0.4-0.6-0.6-1.7c-2.1,2.3-0.6,3.8-2.7,6.5c-1,1.3-1.4,3.5-1.5,3.6c0-3.4,0.1-2.4,1.6-5.1
			c1.2-2.2-0.1-4.3-0.2-5.7c-2.7,1.8-2.5,5.4-2.5,4.6c-0.1-0.8-0.4-2.1,0-3.3c0.6-2-0.7-5.1-0.7-5.1c-3.8,5.9-0.6,12.8-0.8,12.7
			c-1.6-2.6-2.8-2.7-3.2-4.6c-0.2-1.1-2.1-6.9-5.7-7c1.8,1.5,1.4,1.8,1.5,4.3c-1.1,6.3,7.7,7,7.1,10.3c-1.2-1.9-3.1-2.8-5.9-4.3
			c-1.2-1-2.6-1.4-2.7-2.9c0.1-1.1,0.2-0.9,0-2.3c-0.1-1-1.2-0.4-1.9-2.6c-1.6,1.4-1,3.1-0.9,4c0,0.3,0.2,1.2,0,1.8
			c-0.6-0.4-1-1.2-1.6-2c-1.1-1.5-1.1-3.3-1.7-4.5c-0.3-0.6-0.6-1.4-0.9-1.4l0,0c-0.3,2.3-0.1,4.3,0.9,6c0,0-0.3,0.5-0.5,0.6
			c-1-0.3-2.4-1.1-3-2.7c-1.2,1-0.4,2.4-0.4,2.4c-2.8-1.4,0-6.9-3.9-6.8c1,1.1,0.4,2.4,0.3,3.7c0,2.1,2.6,3.7,2.6,3.7
			c-2.9-1-3.5,0.4-3.5,0.4c0,0,4.3,1.9,11.1,2.6c0.9,0.1,2.1,1.1,1.9,1.1c-0.9-0.1-2.6-1.2-5.1,1c1.5,0,2.5,2.4,4.9,1.1
			c6.2-1.7,8.4,1.3,9.4,2.1c-0.2,0.4-4.7-2.8-8.3-0.7c-1.9,1.1-5,0.1-7.4-1.7c1,2.5,5.1,5.3,6.5,5.3c1.7,0,3.8-2.2,6.2-2.1
			c3.9,0.2,4.4,3.7,4,3.4c0,0-3.1-5.1-7,0.3c1.8-0.8,4.3-0.6,6.4,0.4c0.3,0.1-0.5,1-1.1,1.7c-0.4,0.4-2,2.9-3.8,0.5
			c-0.3-0.4-1.1-2.6-6.6-2.1c2.1,0.9,4.4,3.4,5.5,4.5c2.9,2.9,7.3-3.5,7.5-2.8c0,1.4,0.7,2.1,1.1,2.9c1,1.9-1.2,1.6-2.4,1.1
			c0,0,2.3,3.6,4.2,1.6c2.1-2.2-2.8-3.9-1.2-5.6c0.9-1,4,2.2,5.4,2.2c3.8,0.4,3.6-3.2,5.6-3.1c-1.9-1.9-3.9-0.9-4.3-0.4
			c-1.3,1.5-2.7,0.5-3.7-0.3c-0.6-0.7-1.5-0.8-2.3-0.6c-0.4,0,0.8-1.4,2.3-1.1c3.5,0.7,6.9-0.6,7.8-1c1.4-0.8,2.2-2.1,3.7-3.6
			c-0.5,0.1-3.4,1.7-4.3,2.2c-2.8,1.4-4.5-0.4-4.8-0.4c-0.5,0-0.4-0.4,0.4-0.7c2.8-0.6,4.8-3.1,7.5-4.1
			C102,114.3,105.8,115.2,108.3,112.7 M107.2,117.6c1.1-1.6,1.8-3.4,2.2-5.3c-0.7,0.9-1.6,1.6-2.6,2
			C106.1,116.5,106.4,118.7,107.2,117.6 M117.5,99.7c-2.8,30.4-28.3,35.6-33.7,36.6c-0.3,0.1-30.7-3.8-33.7-36.6c0,0,0-48.4,0-48.4
			s29-3.7,67.4,0L117.5,99.7z M119.3,99.9l0-50.4c-40.5-3.9-71,0-71,0s0,50.4,0,50.4c3.2,34.1,35.2,38.2,35.5,38.1
			C89.5,137,116.3,131.6,119.3,99.9"/>
	</g>
</g>
<g id="primary">
	<g>
		<g>
			<path class="st2" d="M147.9,59.5h-5.5v-3.7h15.1v3.7h-5.5V74h-4V59.5z"/>
			<path class="st2" d="M161.4,55.8h4V63h7.4v-7.2h4V74h-4v-7.3h-7.4V74h-4V55.8z"/>
			<path class="st2" d="M182.1,55.8h13.7v3.6h-9.8v3.7h8.6v3.6h-8.6v3.8h9.9V74h-13.9V55.8z"/>
			<path class="st2" d="M208.8,66.2V55.8h4v10.3c0,3,1.5,4.5,3.9,4.5c2.4,0,3.9-1.5,3.9-4.4V55.8h4v10.3c0,5.5-3.1,8.2-8,8.2
				S208.8,71.6,208.8,66.2z"/>
			<path class="st2" d="M229.7,55.8h3.7l8.5,11.2V55.8h4V74h-3.4l-8.8-11.6V74h-4V55.8z"/>
			<path class="st2" d="M251.3,55.8h4V74h-4V55.8z"/>
			<path class="st2" d="M259.2,55.8h4.4l4.8,12.8l4.8-12.8h4.3l-7.4,18.3h-3.5L259.2,55.8z"/>
			<path class="st2" d="M281.2,55.8h13.7v3.6h-9.8v3.7h8.6v3.6h-8.6v3.8h9.9V74h-13.9V55.8z"/>
			<path class="st2" d="M299.5,55.8h8.3c2.3,0,4.1,0.7,5.3,1.8c1,1,1.6,2.4,1.6,4.2v0.1c0,2.9-1.6,4.8-3.9,5.6l4.4,6.5h-4.7
				l-3.9-5.8h-3.1V74h-4V55.8z M307.6,64.6c2,0,3.1-1,3.1-2.6V62c0-1.7-1.2-2.6-3.1-2.6h-4v5.2H307.6z"/>
			<path class="st2" d="M318,71.4l2.4-2.8c1.6,1.4,3.4,2.2,5.4,2.2c1.6,0,2.6-0.6,2.6-1.7V69c0-1-0.6-1.5-3.7-2.3
				c-3.7-0.9-6-2-6-5.6V61c0-3.3,2.7-5.5,6.4-5.5c2.7,0,4.9,0.8,6.8,2.3l-2.1,3c-1.6-1.1-3.2-1.8-4.7-1.8s-2.3,0.7-2.3,1.6v0.1
				c0,1.2,0.8,1.6,3.9,2.4c3.7,1,5.8,2.3,5.8,5.5v0.1c0,3.6-2.8,5.6-6.7,5.6C323,74.3,320.2,73.3,318,71.4z"/>
			<path class="st2" d="M337,55.8h4V74h-4V55.8z"/>
			<path class="st2" d="M350.7,59.5h-5.5v-3.7h15.1v3.7h-5.5V74h-4V59.5z"/>
			<path class="st2" d="M369.3,66.8l-7-11h4.7l4.3,7.3l4.4-7.3h4.5l-7,10.9V74h-4V66.8z"/>
			<path class="st2" d="M391.6,65L391.6,65c0-5.2,4.1-9.5,9.7-9.5s9.6,4.2,9.6,9.4v0.1c0,5.2-4.1,9.4-9.7,9.4S391.6,70.1,391.6,65z
				 M406.8,65L406.8,65c0-3.2-2.3-5.8-5.5-5.8s-5.5,2.5-5.5,5.7v0.1c0,3.1,2.3,5.7,5.5,5.7C404.5,70.6,406.8,68.1,406.8,65z"/>
			<path class="st2" d="M415.4,55.8h13.9v3.6h-9.9v3.9h8.7V67h-8.7v7h-4V55.8z"/>
			<path class="st2" d="M441.3,65L441.3,65c0-5.2,3.9-9.5,9.5-9.5c3.4,0,5.5,1.1,7.2,2.8l-2.5,2.9c-1.4-1.3-2.8-2.1-4.7-2.1
				c-3.1,0-5.3,2.5-5.3,5.7v0.1c0,3.1,2.2,5.7,5.3,5.7c2.1,0,3.4-0.8,4.8-2.1l2.5,2.6c-1.9,2-4,3.3-7.5,3.3
				C445.3,74.3,441.3,70.2,441.3,65z"/>
			<path class="st2" d="M462.2,55.8h4V63h7.4v-7.2h4V74h-4v-7.3h-7.4V74h-4V55.8z"/>
			<path class="st2" d="M483.1,55.8h4V74h-4V55.8z"/>
			<path class="st2" d="M491.7,65L491.7,65c0-5.2,3.9-9.5,9.5-9.5c3.4,0,5.5,1.1,7.2,2.8l-2.5,2.9c-1.4-1.3-2.8-2.1-4.7-2.1
				c-3.1,0-5.3,2.5-5.3,5.7v0.1c0,3.1,2.2,5.7,5.3,5.7c2.1,0,3.4-0.8,4.8-2.1l2.5,2.6c-1.9,2-4,3.3-7.5,3.3
				C495.7,74.3,491.7,70.2,491.7,65z"/>
			<path class="st2" d="M518.9,55.7h3.7l7.8,18.3h-4.2l-1.7-4.1h-7.7l-1.7,4.1h-4.1L518.9,55.7z M523.1,66.4l-2.4-5.9l-2.4,5.9
				H523.1z"/>
			<path class="st2" d="M532.1,65L532.1,65c0-5.2,4-9.5,9.5-9.5c3.3,0,5.3,0.9,7.1,2.5l-2.5,3c-1.4-1.2-2.7-1.8-4.8-1.8
				c-2.9,0-5.2,2.6-5.2,5.7v0.1c0,3.3,2.3,5.8,5.5,5.8c1.5,0,2.8-0.4,3.8-1.1V67h-4v-3.5h7.9v7.9c-1.9,1.6-4.4,2.9-7.8,2.9
				C536,74.3,532.1,70.3,532.1,65z"/>
			<path class="st2" d="M553.4,65L553.4,65c0-5.2,4.1-9.5,9.7-9.5s9.6,4.2,9.6,9.4v0.1c0,5.2-4.1,9.4-9.7,9.4S553.4,70.1,553.4,65z
				 M568.6,65L568.6,65c0-3.2-2.3-5.8-5.5-5.8s-5.5,2.5-5.5,5.7v0.1c0,3.1,2.3,5.7,5.5,5.7C566.3,70.6,568.6,68.1,568.6,65z"/>
		</g>
	</g>
	<g>
		<path class="st2" d="M151.6,103.9h-9.4v-6.2h25.5v6.2h-9.4v24.6h-6.8V103.9z"/>
		<path class="st2" d="M173.1,97.6h6.8v12.2h12.5V97.6h6.8v30.8h-6.8v-12.4h-12.5v12.4h-6.8V97.6z"/>
		<path class="st2" d="M207.6,97.6h23.2v6h-16.5v6.2h14.5v6h-14.5v6.5H231v6h-23.5V97.6z"/>
		<path class="st2" d="M255.3,97.6h6.8v24.6h15.4v6.2h-22.1V97.6z"/>
		<path class="st2" d="M294.8,97.4h6.2l13.2,31h-7.1l-2.8-6.9h-13l-2.8,6.9h-6.9L294.8,97.4z M301.9,115.6l-4.1-10l-4.1,10H301.9z"
			/>
		<path class="st2" d="M312.2,97.6h7.3l6.4,20.9l6.9-20.9h5.8l6.9,20.9l6.4-20.9h7.1l-10.5,31h-5.9l-7-20.2l-7,20.2h-5.9L312.2,97.6
			z"/>
		<path class="st2" d="M378,124l4-4.8c2.8,2.3,5.7,3.7,9.2,3.7c2.8,0,4.4-1.1,4.4-2.9v-0.1c0-1.7-1.1-2.6-6.2-3.9
			c-6.2-1.6-10.2-3.3-10.2-9.4v-0.1c0-5.6,4.5-9.3,10.8-9.3c4.5,0,8.3,1.4,11.4,3.9l-3.5,5.1c-2.7-1.9-5.4-3-8-3s-4,1.2-4,2.7v0.1
			c0,2,1.3,2.7,6.6,4c6.2,1.6,9.8,3.9,9.8,9.2v0.1c0,6.1-4.7,9.5-11.3,9.5C386.4,128.9,381.7,127.3,378,124z"/>
		<path class="st2" d="M407.3,113.1L407.3,113.1c0-8.8,6.6-16,16.1-16c5.8,0,9.3,1.9,12.1,4.8l-4.3,5c-2.4-2.2-4.8-3.5-7.9-3.5
			c-5.2,0-8.9,4.3-8.9,9.6v0.1c0,5.3,3.7,9.7,8.9,9.7c3.5,0,5.7-1.4,8.1-3.6l4.3,4.4c-3.2,3.4-6.7,5.5-12.6,5.5
			C414,129,407.3,122,407.3,113.1z"/>
		<path class="st2" d="M441.5,97.6h6.8v12.2h12.5V97.6h6.8v30.8h-6.8v-12.4h-12.5v12.4h-6.8V97.6z"/>
		<path class="st2" d="M473.5,113.1L473.5,113.1c0-8.8,6.9-16,16.4-16c9.5,0,16.3,7.1,16.3,15.8v0.1c0,8.8-6.9,15.9-16.4,15.9
			C480.3,129,473.5,121.9,473.5,113.1z M499.1,113.1L499.1,113.1c0-5.4-3.9-9.8-9.3-9.8c-5.5,0-9.2,4.3-9.2,9.6v0.1
			c0,5.3,3.9,9.7,9.3,9.7C495.3,122.7,499.1,118.4,499.1,113.1z"/>
		<path class="st2" d="M510.8,113.1L510.8,113.1c0-8.8,6.9-16,16.4-16c9.5,0,16.3,7.1,16.3,15.8v0.1c0,8.8-6.9,15.9-16.4,15.9
			C517.6,129,510.8,121.9,510.8,113.1z M536.4,113.1L536.4,113.1c0-5.4-3.9-9.8-9.3-9.8c-5.5,0-9.2,4.3-9.2,9.6v0.1
			c0,5.3,3.9,9.7,9.3,9.7C532.6,122.7,536.4,118.4,536.4,113.1z"/>
		<path class="st2" d="M550.3,97.6h6.8v24.6h15.4v6.2h-22.1V97.6z"/>
	</g>
</g>
</svg>
